<svg xmlns="http://www.w3.org/2000/svg" width="55.939" height="55.939" viewBox="0 0 55.939 55.939">
    <g fill="#fff">
        <path d="M23.074 52.24H3.296C1.728 52.24.5 51.012.5 49.444V9.889c0-.745.291-1.447.82-1.976.53-.53 1.231-.82 1.976-.82h3.797V1.648C7.093 1.015 7.608.5 8.24.5h9.888c.633 0 1.148.515 1.148 1.148v5.445h3.797c1.568 0 2.796 1.228 2.796 2.796v39.555c0 1.568-1.228 2.796-2.796 2.796zM12.685 33.463v9.388l.964.186 6.593-16.481.274-.686H13.685v-9.389l-.964-.185-6.593 16.48-.274.686H12.685z" transform="rotate(45 18.646 45.017)"/>
        <path fill="#15d4d8" d="M8.24 1c-.357 0-.647.29-.647.648v5.945H3.296c-.611 0-1.187.239-1.622.674C1.24 8.7 1 9.277 1 9.889v39.555C1 50.73 2.01 51.74 3.296 51.74h19.778c1.287 0 2.296-1.009 2.296-2.296V9.889c0-1.288-1.009-2.296-2.296-2.296H18.777V1.648c0-.357-.29-.648-.648-.648H8.241m5.944 24.37h7.07l-.549 1.371-6.592 16.482-1.929-.372v-8.888H5.116l.548-1.372 6.593-16.481 1.928.371v8.889M8.241 0h9.888c.91 0 1.648.738 1.648 1.648v4.945h3.297c1.849 0 3.296 1.447 3.296 3.296v39.555c0 1.849-1.447 3.296-3.296 3.296H3.296C1.447 52.74 0 51.293 0 49.444V9.889c0-1.816 1.48-3.296 3.296-3.296h3.297V1.648C6.593.738 7.33 0 8.24 0zm4.944 42.851l6.593-16.481h-6.593v-9.889L6.593 32.962h6.592v9.89z" transform="rotate(45 18.646 45.017)"/>
    </g>
</svg>
