<svg xmlns="http://www.w3.org/2000/svg" width="53.825" height="50" viewBox="0 0 53.825 50">
    <g>
        <path fill="#eaf0f7" d="M53.1 22.362a5.793 5.793 0 0 1-1.634 1.165.962.962 0 0 1-.815-1.742 3.894 3.894 0 0 0 1.73-1.59 3.845 3.845 0 0 0-5.661-4.97.961.961 0 0 1-1.154-1.538 5.716 5.716 0 0 1 2.342-1.035 10.638 10.638 0 0 0-10.416-8.77H37.4a5.706 5.706 0 0 1 .087.961.962.962 0 1 1-1.922.074 4 4 0 0 0-2.1-3.535 3.874 3.874 0 0 0-5.587 3.461.961.961 0 1 1-1.922 0 5.724 5.724 0 0 1 .474-2.283A8.14 8.14 0 0 0 21.628 1a8.241 8.241 0 0 0-7.038 4 8.137 8.137 0 0 0-.865 2.086.962.962 0 1 1-1.861-.486 10.114 10.114 0 0 1 .565-1.564 5.236 5.236 0 0 0-1.375-.192 5.293 5.293 0 0 0-5.262 4.807 5.709 5.709 0 0 1 4.59 2.319.961.961 0 0 1-1.538 1.154 3.806 3.806 0 0 0-3.076-1.55 3.845 3.845 0 0 0-1.978 7.14.961.961 0 0 1-.99 1.649 5.75 5.75 0 0 1-1.628-1.484 10.093 10.093 0 0 0 11.566 14.452 9.084 9.084 0 0 1-.241-2.052c0-.162.024-.322.033-.481h-.03a4.812 4.812 0 0 1-4.81-4.806.979.979 0 0 1 .961-.98.945.945 0 0 1 .961.942v.038a2.884 2.884 0 0 0 3.2 2.866l.009-.007a9.084 9.084 0 0 1 .972-2.272.961.961 0 0 1 1.648.991 7.166 7.166 0 0 0-.627 6.056v.006a7.2 7.2 0 0 0 12.276 2.357 1.057 1.057 0 0 1 1.077-.267 12.112 12.112 0 0 0 5.4.813 12.388 12.388 0 0 0 2.794-.513.961.961 0 0 1 .564 1.838 14.33 14.33 0 0 1-3.2.592h-.052c.139 2.7 1.091 4.2 6.048 5.855a8.9 8.9 0 0 1 6.158 6 .949.949 0 0 0 .919.673h1.153a.961.961 0 0 0 .961-1.057c-.257-2.534-1.038-6.8-3.4-9.282a12.274 12.274 0 0 1-2.121.545.922.922 0 0 1-.154.012.961.961 0 0 1-.151-1.911 10.491 10.491 0 0 0 7.7-5.677 9.015 9.015 0 0 1-8.3.022 8.741 8.741 0 0 1-2-1.381 4.779 4.779 0 0 1-6.329-2.2.962.962 0 0 1 1.719-.865 2.885 2.885 0 1 0 5.161-2.578.962.962 0 1 1 1.719-.865 4.8 4.8 0 0 1-.681 5.307 6.849 6.849 0 0 0 1.281.856 7.031 7.031 0 0 0 3.264.806 7.245 7.245 0 0 0 5.336-2.369l.022-.023a6.289 6.289 0 0 0 1.232-1.838 7.282 7.282 0 0 0-.114-6.129zm-17.53-3.1h-2.887a.961.961 0 0 1-.924-.7l-.908-3.179-3 12.747a.961.961 0 0 1-.936.741H26.9a.961.961 0 0 1-.926-.769l-2.9-14.515-.98 4.9a.961.961 0 0 1-.942.769h-6.733a.961.961 0 0 1 0-1.923h5.941L22.128 8.5a.961.961 0 0 1 1.884 0l2.98 14.893 2.833-12.041a.961.961 0 0 1 .913-.737.945.945 0 0 1 .946.7l1.724 6.032h2.159a.961.961 0 0 1 0 1.923zm5.768 0h-1.926a.961.961 0 1 1 0-1.923h1.923a.961.961 0 0 1 0 1.923z" transform="translate(-.006 -.985)"/>
    </g>
</svg>
