<svg xmlns="http://www.w3.org/2000/svg" width="53.825" height="50" viewBox="0 0 53.825 50">
    <g fill="#fff">
        <path d="M46.78 50.485c-.198 0-.37-.128-.429-.319-.458-1.516-1.3-2.902-2.434-4.008-1.131-1.103-2.533-1.909-4.056-2.33-2.361-.788-3.785-1.528-4.614-2.4-.62-.651-.929-1.381-1.044-2.515.971-.097 1.934-.29 2.867-.575.374-.115.68-.368.863-.713.183-.345.22-.74.106-1.113-.19-.618-.751-1.033-1.397-1.033-.145 0-.29.022-.43.065-.87.266-1.772.431-2.68.492h-.006c-.299.024-.602.036-.902.036-1.47 0-2.907-.275-4.273-.815l-.016-.006-.016-.006c-.154-.048-.313-.073-.474-.073-.415 0-.82.17-1.112.467l-.011.012-.01.012c-1.276 1.481-3.127 2.33-5.081 2.33-.423 0-.849-.04-1.265-.12-2.325-.446-4.252-2.1-5.048-4.326v-.005l-.028-.08c-.655-1.877-.442-3.93.583-5.634.415-.69.192-1.59-.499-2.005-.227-.137-.488-.21-.752-.21-.51 0-.99.272-1.253.709-.388.646-.699 1.336-.925 2.054-.568-.013-1.112-.227-1.537-.607-.505-.452-.794-1.1-.794-1.777v-.038c-.001-.386-.16-.76-.434-1.03-.272-.266-.63-.413-1.011-.413h-.025c-.803.015-1.454.68-1.453 1.482.004 2.753 2.117 5.026 4.807 5.281v.005c.001.564.053 1.127.153 1.681-.674.148-1.361.222-2.05.222-1.418 0-2.846-.322-4.128-.933-1.3-.62-2.462-1.541-3.363-2.666C.38 26.797-.107 23.028 1.291 19.79c.37.385.79.72 1.25 1 .23.138.49.21.754.21.51 0 .991-.272 1.254-.71.2-.334.26-.727.165-1.106-.095-.378-.332-.698-.666-.898-1.284-.771-1.901-2.317-1.501-3.76.4-1.443 1.724-2.452 3.221-2.453h.011c1.047 0 2.042.503 2.662 1.346.277.37.715.588 1.173.588.318 0 .62-.1.875-.292.645-.483.776-1.401.293-2.046-1.049-1.42-2.67-2.326-4.416-2.491.202-.99.71-1.892 1.464-2.58.884-.807 2.029-1.252 3.225-1.254.227.002.454.02.679.054-.136.35-.254.71-.353 1.072-.132.508.016 1.048.386 1.414.276.272.64.422 1.028.422.13 0 .26-.018.386-.053.502-.137.896-.536 1.028-1.04.178-.688.452-1.346.812-1.958.682-1.137 1.654-2.087 2.81-2.744 1.156-.657 2.47-1.007 3.8-1.012 1.501 0 2.94.43 4.186 1.248-.241.673-.363 1.377-.363 2.098 0 .805.656 1.46 1.461 1.46.806 0 1.461-.655 1.461-1.46.005-1.17.602-2.238 1.598-2.855.534-.33 1.148-.505 1.777-.505.51 0 1.024.118 1.483.343 1.135.615 1.837 1.798 1.833 3.089v.02c.03.789.672 1.406 1.46 1.406h.057c.39-.016.751-.182 1.017-.468.263-.285.4-.654.388-1.041-.001-.145-.007-.291-.018-.437 4.523.238 8.347 3.46 9.348 7.88-.739.207-1.441.552-2.055 1.01-.417.313-.637.828-.575 1.345.063.516.399.964.877 1.169.183.078.376.117.574.117.314 0 .626-.104.877-.292.588-.445 1.285-.679 2.02-.679.812 0 1.596.295 2.207.831 1.188 1.043 1.482 2.797.7 4.17-.35.608-.871 1.087-1.508 1.384-.354.166-.622.46-.755.826-.133.367-.115.764.05 1.118.24.512.76.842 1.325.842.215 0 .423-.046.619-.138.444-.212.858-.472 1.238-.778.608 1.645.557 3.465-.16 5.087-.276.63-.657 1.199-1.134 1.693l-.023.024-.005.005-.004.005c-1.27 1.395-3.08 2.199-4.968 2.205-1.05 0-2.099-.26-3.03-.749-.283-.145-.554-.312-.81-.497 1.137-1.588 1.313-3.672.424-5.447-.235-.466-.703-.774-1.223-.803l-.084-.003c-.494 0-.95.247-1.222.66-.286.435-.318.995-.084 1.46.587 1.174.108 2.61-1.068 3.197-.335.167-.692.252-1.063.252-.91 0-1.73-.506-2.136-1.32-.25-.497-.751-.806-1.307-.806-.226 0-.454.054-.657.156-.349.176-.608.477-.73.848-.123.37-.094.767.082 1.116.443.894 1.129 1.643 1.981 2.16.83.505 1.781.772 2.75.772.673 0 1.328-.126 1.951-.375.569.487 1.195.904 1.865 1.24 1.341.691 2.848 1.056 4.356 1.056 1.008 0 2.013-.162 2.97-.476-1.534 2.19-3.906 3.7-6.58 4.136-.747.117-1.288.802-1.228 1.559.06.755.7 1.346 1.457 1.346h.005c.078 0 .156-.007.233-.02.638-.104 1.273-.258 1.89-.459 2.122 2.441 2.82 6.504 3.048 8.754.013.13-.03.259-.117.356-.088.096-.212.15-.342.15H46.781zM23.07 16.14l2.413 12.064c.138.678.717 1.159 1.408 1.17h.024c.682 0 1.267-.463 1.423-1.126l2.56-10.878.38 1.333c.179.623.756 1.059 1.405 1.06h2.884c.805 0 1.46-.656 1.46-1.462 0-.806-.655-1.461-1.46-1.461h-1.782l-1.62-5.667c-.171-.626-.743-1.063-1.393-1.063l-.049.001c-.661.017-1.23.477-1.384 1.12l-2.307 9.807-2.53-12.64c-.137-.68-.74-1.172-1.432-1.172s-1.294.492-1.432 1.17l-1.688 8.444h-5.531c-.806 0-1.461.655-1.461 1.46 0 .807.655 1.462 1.461 1.462h6.729c.691 0 1.293-.491 1.432-1.169l.49-2.453zm16.342.7c-.806 0-1.462.655-1.462 1.46 0 .807.656 1.462 1.462 1.462h1.922c.806 0 1.461-.655 1.461-1.461s-.655-1.461-1.461-1.461h-1.922z" transform="translate(-.006 -.985)"/>
        <path fill="#15d4d8" d="M31.75 1.985c-.535 0-1.058.149-1.513.43-.848.526-1.357 1.435-1.36 2.43 0 1.08-.88 1.96-1.962 1.96-1.081 0-1.961-.88-1.961-1.96 0-.642.09-1.271.267-1.88C24.133 2.331 22.907 2 21.63 2c-1.243.005-2.472.332-3.553.947-1.08.614-1.989 1.501-2.628 2.566-.336.57-.59 1.185-.758 1.828-.176.676-.704 1.21-1.378 1.396-.17.046-.344.07-.52.07-.519 0-1.009-.201-1.378-.567-.497-.49-.696-1.215-.52-1.891l.002-.005V6.34c.046-.166.095-.33.147-.495-1.067.005-2.09.403-2.878 1.123-.541.495-.941 1.112-1.172 1.794 1.66.306 3.172 1.235 4.19 2.612.645.864.469 2.094-.396 2.742-.342.257-.748.392-1.176.392-.614 0-1.2-.293-1.57-.784l-.002-.004-.003-.003c-.526-.716-1.37-1.143-2.259-1.143h-.01c-1.274.001-2.4.859-2.74 2.086-.34 1.227.185 2.542 1.276 3.198.927.556 1.229 1.763.673 2.69-.353.588-.998.953-1.683.953-.355 0-.703-.097-1.008-.28l-.003-.001-.002-.002c-.278-.169-.542-.356-.79-.56C.5 23.564 1.039 26.818 3 29.27c1.735 2.169 4.323 3.412 7.1 3.412.496 0 .992-.04 1.482-.121-.037-.282-.062-.564-.075-.848-2.728-.474-4.813-2.86-4.817-5.719-.002-1.074.87-1.963 1.945-1.982h.033c.512 0 .995.197 1.361.555.37.362.582.866.584 1.387v.038c0 .536.228 1.047.627 1.404.246.22.542.37.86.438.221-.615.503-1.208.84-1.77.353-.586.997-.95 1.682-.95.355 0 .704.096 1.01.28.449.27.766.699.892 1.207.127.509.048 1.036-.223 1.485-.948 1.575-1.144 3.475-.539 5.21l.056.16v.002c.754 2.02 2.518 3.516 4.642 3.924.385.074.78.112 1.17.112 1.809 0 3.522-.786 4.702-2.157l.021-.025.023-.023c.384-.392.92-.617 1.47-.617.212 0 .422.032.625.097l.032.01.032.013c1.307.517 2.683.78 4.089.78.287 0 .577-.012.863-.034h.011c.87-.059 1.735-.218 2.568-.472.187-.058.381-.087.576-.087.867 0 1.62.557 1.875 1.386.317 1.034-.266 2.133-1.3 2.45-.8.245-1.62.424-2.448.535.135.743.396 1.267.84 1.733.758.797 2.156 1.518 4.398 2.267 1.599.444 3.071 1.291 4.26 2.45 1.185 1.156 2.067 2.603 2.552 4.185h1.088c-.467-4.546-1.771-6.978-2.72-8.184-.536.16-1.084.286-1.634.376-.104.017-.21.026-.315.026h-.005c-1.016 0-1.875-.794-1.955-1.807-.08-1.014.643-1.932 1.648-2.091 2.05-.335 3.912-1.335 5.32-2.801-.538.089-1.085.134-1.632.134-1.587 0-3.172-.384-4.583-1.11-.617-.31-1.198-.685-1.735-1.117-.597.203-1.218.306-1.854.306-1.06 0-2.101-.292-3.01-.844-.932-.567-1.683-1.385-2.17-2.367-.234-.467-.272-.998-.108-1.494.164-.498.512-.902.98-1.137.273-.137.578-.21.882-.21.746 0 1.418.414 1.755 1.083.321.643.968 1.043 1.688 1.043.292 0 .575-.067.84-.2.93-.464 1.308-1.598.845-2.525-.314-.624-.271-1.374.112-1.958.364-.555.977-.886 1.64-.886.038 0 .075.001.113.003.697.04 1.326.453 1.64 1.079.895 1.785.805 3.855-.181 5.528.113.069.23.134.347.195l.003.001.003.002c.86.451 1.829.69 2.797.69 1.747-.005 3.423-.749 4.6-2.04l.008-.01.009-.01.024-.025c.436-.452.784-.972 1.037-1.548.573-1.295.686-2.727.346-4.074-.24.154-.49.293-.749.417l-.003.001-.003.002c-.263.123-.542.185-.831.185-.759 0-1.456-.443-1.777-1.13-.223-.475-.247-1.007-.068-1.5.178-.493.538-.886 1.014-1.109.543-.253.987-.662 1.284-1.178.665-1.168.415-2.66-.595-3.547-.52-.456-1.186-.707-1.877-.707-.625 0-1.218.2-1.72.579-.337.253-.755.392-1.177.392-.266 0-.525-.053-.77-.157-.642-.275-1.093-.876-1.177-1.57-.083-.693.212-1.384.772-1.804.532-.398 1.127-.717 1.755-.943-1.05-3.797-4.32-6.575-8.231-7.003-.014.474-.196.922-.522 1.273-.356.385-.84.608-1.364.628l-.076.001c-1.058 0-1.919-.828-1.96-1.886V4.915c.003-1.103-.595-2.114-1.562-2.642-.39-.189-.822-.288-1.254-.288m-4.68 16.703l1.781-7.572c.207-.863.97-1.48 1.857-1.504h.063c.873 0 1.643.586 1.875 1.427l1.515 5.302h1.405c.948 0 1.741.676 1.922 1.572.18-.896.974-1.572 1.923-1.572h1.922c1.081 0 1.961.88 1.961 1.96 0 1.082-.88 1.962-1.961 1.962h-1.922c-.949 0-1.742-.676-1.923-1.572-.18.896-.974 1.572-1.922 1.572h-2.885c-.719 0-1.373-.4-1.714-1.01l-2.143 9.11c-.21.89-.995 1.513-1.91 1.513h-.033c-.927-.016-1.703-.661-1.89-1.573L23.07 18.69v.003c-.186.91-.994 1.57-1.922 1.57h-6.729c-1.081 0-1.961-.88-1.961-1.962 0-1.081.88-1.961 1.961-1.961h5.12l1.61-8.043c.184-.91.992-1.57 1.921-1.57.93 0 1.737.66 1.923 1.573l2.078 10.387M31.751.985c.584 0 1.17.132 1.712.399 1.3.7 2.108 2.058 2.104 3.534.02.519.446.925.96.925h.038c.53-.02.944-.468.924-.999-.002-.322-.03-.643-.087-.96h.087c5.133.027 9.515 3.715 10.416 8.769-.849.163-1.65.517-2.341 1.035-.275.206-.42.543-.378.884.041.34.26.634.577.769.121.052.25.077.377.077.205 0 .408-.065.577-.192.688-.52 1.505-.779 2.32-.779.908 0 1.814.32 2.537.956 1.371 1.204 1.707 3.207.804 4.793-.4.695-1.004 1.25-1.73 1.59-.481.225-.689.797-.464 1.278.164.35.51.554.872.554.136 0 .275-.029.407-.09.608-.291 1.161-.685 1.634-1.166.938 1.927.98 4.169.114 6.13-.299.68-.716 1.302-1.232 1.837l-.022.023c-1.368 1.503-3.304 2.362-5.336 2.369-1.137 0-2.258-.277-3.265-.806-.457-.236-.887-.523-1.28-.856 1.283-1.467 1.552-3.564.68-5.307-.155-.307-.461-.509-.805-.528l-.055-.002c-.323 0-.625.162-.804.434-.189.288-.21.654-.055.96.712 1.426.134 3.158-1.291 3.87-.414.207-.854.305-1.287.305-1.059 0-2.078-.585-2.583-1.596-.169-.336-.508-.53-.86-.53-.146 0-.293.033-.432.103-.475.239-.666.817-.427 1.292.834 1.68 2.525 2.657 4.285 2.657.687 0 1.384-.148 2.044-.462.599.552 1.271 1.017 1.999 1.382 1.295.668 2.713 1.001 4.13 1.001 1.432 0 2.865-.34 4.172-1.023-1.505 3.021-4.371 5.134-7.703 5.677-.496.077-.849.524-.81 1.025.04.5.457.886.959.886h.005c.05 0 .101-.004.151-.013.722-.118 1.431-.3 2.12-.545 2.36 2.48 3.141 6.748 3.398 9.282.027.271-.062.541-.245.743-.183.2-.44.315-.712.315H46.781c-.418 0-.786-.273-.908-.673-.884-2.927-3.21-5.195-6.158-6.005-4.957-1.653-5.909-3.153-6.048-5.855h.052c1.087-.075 2.163-.274 3.205-.592.507-.156.792-.694.637-1.201-.127-.414-.508-.68-.919-.68-.093 0-.188.014-.282.043-.91.277-1.847.45-2.795.513-.314.024-.628.037-.941.037-1.523 0-3.036-.288-4.457-.85-.106-.034-.214-.05-.322-.05-.28 0-.553.11-.755.317-1.382 1.607-3.384 2.505-5.46 2.505-.45 0-.906-.043-1.358-.13-2.535-.486-4.615-2.292-5.454-4.732v-.006c-.702-2.011-.472-4.23.627-6.056.273-.455.126-1.045-.329-1.319-.155-.093-.326-.138-.494-.138-.326 0-.645.166-.825.466-.426.71-.753 1.474-.972 2.273l-.008.006c-.107.012-.214.018-.32.018-.706 0-1.392-.259-1.923-.734-.612-.548-.961-1.33-.961-2.15v-.038c-.001-.253-.103-.496-.284-.673-.177-.173-.414-.27-.661-.27H8.65c-.534.01-.962.446-.96.981.002 2.653 2.152 4.803 4.805 4.806h.033c-.008.159-.033.318-.033.48.003.692.084 1.38.242 2.053-.874.237-1.76.351-2.638.351-3.019 0-5.936-1.357-7.881-3.787-2.51-3.137-2.92-7.463-1.046-11.016.442.595.995 1.099 1.628 1.484.155.093.326.137.494.137.327 0 .645-.166.825-.467.273-.455.126-1.046-.33-1.319-1.48-.89-2.186-2.657-1.725-4.322.46-1.665 1.975-2.818 3.703-2.819h.011c1.21 0 2.347.575 3.065 1.55.189.252.477.384.77.384.2 0 .403-.062.575-.192.425-.319.511-.921.193-1.346-1.076-1.457-2.78-2.317-4.59-2.318.25-2.72 2.53-4.803 5.263-4.807.464.003.927.068 1.374.193-.23.505-.42 1.028-.565 1.564-.087.332.01.686.255.927.182.18.426.278.676.278.084 0 .17-.012.254-.035.331-.09.59-.352.676-.684.19-.732.481-1.434.865-2.086C16.074 2.527 18.744 1.01 21.628 1h.005c1.723 0 3.402.547 4.795 1.562-.313.72-.474 1.498-.474 2.283 0 .531.43.962.961.962.531 0 .961-.43.961-.962.005-1.336.698-2.575 1.834-3.279.623-.386 1.33-.58 2.04-.58zM26.992 23.39l-2.98-14.893c-.09-.448-.485-.77-.942-.77-.457 0-.85.322-.942.77l-1.768 8.844h-5.941c-.53 0-.961.43-.961.96 0 .532.43.962.961.962h6.729c.457 0 .85-.321.942-.769l.98-4.902 2.903 14.515c.09.441.475.761.926.769h.016c.447 0 .834-.307.937-.741l2.999-12.748.908 3.18c.118.412.495.696.924.696h2.884c.53 0 .96-.43.96-.961 0-.53-.43-.961-.96-.961h-2.16l-1.723-6.032c-.112-.413-.487-.698-.912-.698h-.034c-.436.01-.811.314-.913.738l-2.833 12.04zm14.342-4.127c.53 0 .961-.43.961-.961 0-.53-.43-.961-.961-.961h-1.922c-.531 0-.962.43-.962.96 0 .532.43.962.962.962h1.922z" transform="translate(-.006 -.985)"/>
    </g>
</svg>
