<svg xmlns="http://www.w3.org/2000/svg" id="Grupo_11427" width="68.885" height="50" viewBox="0 0 68.885 50">
    <defs>
        <style>
            .cls-1{fill:#fff}.cls-2,.cls-3{stroke:none}.cls-3{fill:#15d4d8}
        </style>
    </defs>
    <g id="Exclusão_16" class="cls-1">
        <path d="M19.7 38.902c-5.128 0-9.95-1.998-13.576-5.625C2.497 29.65.5 24.827.5 19.698c0-5.128 1.997-9.95 5.624-13.576C9.75 2.497 14.571.5 19.7.5c5.129 0 9.95 1.997 13.576 5.622 3.626 3.625 5.623 8.446 5.623 13.576 0 5.13-1.997 9.953-5.623 13.58-3.626 3.626-8.447 5.624-13.576 5.624zm-5.626-15.274c-.468 0-.913.201-1.221.552-.286.321-.43.74-.404 1.174.026.432.218.83.543 1.118 1.52 1.343 4.182 2.778 7.103 2.778 2.419 0 4.603-.958 6.493-2.846.307-.306.477-.714.477-1.148 0-.435-.17-.844-.477-1.151-.307-.307-.715-.476-1.15-.476-.433 0-.841.17-1.148.476-1.253 1.253-2.67 1.888-4.211 1.888-2.697 0-4.908-1.937-4.93-1.957-.297-.263-.679-.408-1.075-.408zm11.976-9.9c-1.785 0-3.236 1.452-3.236 3.236 0 1.783 1.451 3.234 3.236 3.234 1.783 0 3.234-1.45 3.234-3.234s-1.451-3.236-3.234-3.236zm-12.59 0c-1.784 0-3.235 1.452-3.235 3.236 0 1.783 1.451 3.234 3.235 3.234 1.783 0 3.234-1.45 3.234-3.234s-1.45-3.236-3.234-3.236z" class="cls-2" transform="translate(15.696 7.089)"/>
        <path d="M19.7 38.402c4.995 0 9.691-1.946 13.223-5.478 3.531-3.532 5.476-8.23 5.476-13.226s-1.945-9.692-5.476-13.223C29.39 2.945 24.695 1 19.7 1c-4.995 0-9.69 1.945-13.222 5.475C2.945 10.007 1 14.703 1 19.698c0 4.996 1.945 9.693 5.478 13.226 3.532 3.532 8.227 5.478 13.222 5.478m-7.219-14.556c.404-.456.984-.718 1.593-.718.519 0 1.018.19 1.407.535.02.018 2.093 1.83 4.598 1.83 1.404 0 2.701-.586 3.857-1.742.402-.4.935-.622 1.503-.622.567 0 1.101.221 1.503.622.402.402.623.936.623 1.505 0 .568-.222 1.102-.623 1.502-1.988 1.985-4.291 2.992-6.847 2.992-3.06 0-5.846-1.5-7.436-2.904-.424-.378-.676-.897-.71-1.462-.034-.568.155-1.114.532-1.538M26.05 13.228c2.059 0 3.734 1.676 3.734 3.736 0 2.059-1.675 3.734-3.734 3.734-2.06 0-3.736-1.675-3.736-3.734 0-2.06 1.676-3.736 3.736-3.736m-12.59 0c2.059 0 3.734 1.676 3.734 3.736 0 2.059-1.675 3.734-3.734 3.734-2.06 0-3.735-1.675-3.735-3.734 0-2.06 1.675-3.736 3.735-3.736m6.24 26.174c-5.261 0-10.209-2.05-13.93-5.771C2.05 29.909 0 24.96 0 19.698c0-5.262 2.05-10.21 5.77-13.93C9.49 2.048 14.439 0 19.7 0c5.262 0 10.21 2.049 13.93 5.768 3.72 3.72 5.77 8.667 5.77 13.93 0 5.264-2.05 10.212-5.77 13.933-3.72 3.721-8.668 5.77-13.93 5.77zm-5.626-15.274c-.324 0-.632.14-.846.382-.199.224-.299.513-.28.813.018.3.152.576.376.776 1.45 1.281 3.99 2.65 6.77 2.65 2.282 0 4.348-.908 6.14-2.698.213-.212.33-.495.33-.795 0-.302-.117-.585-.33-.798-.212-.212-.494-.329-.795-.329-.301 0-.584.117-.796.33-1.35 1.35-2.885 2.034-4.564 2.034-2.875 0-5.167-1.998-5.262-2.083-.205-.182-.47-.282-.743-.282zm11.976-9.9c-1.51 0-2.736 1.227-2.736 2.736 0 1.508 1.227 2.734 2.736 2.734 1.507 0 2.734-1.226 2.734-2.734 0-1.509-1.227-2.736-2.734-2.736zm-12.59 0c-1.508 0-2.735 1.227-2.735 2.736 0 1.508 1.227 2.734 2.735 2.734 1.508 0 2.734-1.226 2.734-2.734 0-1.509-1.226-2.736-2.734-2.736z" class="cls-3" transform="translate(15.696 7.089)"/>
    </g>
    <g id="Caminho_9978" class="cls-1">
        <path d="M1061.253 8367.532l-.951-1.737-.07-.128-.128-.07-1.74-.953 1.74-.953.128-.07.07-.128.95-1.736.951 1.736.07.128.128.07 1.74.953-1.74.953-.128.07-.07.128-.95 1.737z" class="cls-2" transform="translate(-1046.296 -8360.716)"/>
        <path d="M1061.253 8362.798l-.513.935-.14.256-.256.14-.939.515.939.514.256.14.14.257.513.935.511-.935.14-.256.257-.14.939-.515-.939-.514-.256-.14-.14-.257-.512-.935m0-2.082l1.389 2.537 2.539 1.39-2.54 1.392-1.388 2.538-1.39-2.538-2.54-1.391 2.54-1.391 1.39-2.537z" class="cls-3" transform="translate(-1046.296 -8360.716)"/>
    </g>
    <g id="Caminho_9984" class="cls-1">
        <path d="M1061.253 8367.532l-.951-1.737-.07-.128-.128-.07-1.74-.953 1.74-.953.128-.07.07-.128.95-1.736.951 1.736.07.128.128.07 1.74.953-1.74.953-.128.07-.07.128-.95 1.737z" class="cls-2" transform="translate(-1000.463 -8319.049)"/>
        <path d="M1061.253 8362.798l-.513.935-.14.256-.256.14-.939.515.939.514.256.14.14.257.513.935.511-.935.14-.256.257-.14.939-.515-.939-.514-.256-.14-.14-.257-.512-.935m0-2.082l1.389 2.537 2.539 1.39-2.54 1.392-1.388 2.538-1.39-2.538-2.54-1.391 2.54-1.391 1.39-2.537z" class="cls-3" transform="translate(-1000.463 -8319.049)"/>
    </g>
    <g id="Caminho_9979" class="cls-1">
        <path d="M1063.336 8371.696l-1.687-3.084-.07-.128-.128-.07-3.085-1.69 3.084-1.685.129-.07.07-.128 1.687-3.083 1.687 3.083.07.128.129.07 3.084 1.686-3.085 1.69-.128.07-.07.127-1.687 3.084z" class="cls-2" transform="translate(-1000.463 -8346.132)"/>
        <path d="M1063.336 8362.799l-1.248 2.282-.14.257-.258.14-2.282 1.248 2.283 1.25.256.14.14.257 1.249 2.281 1.248-2.281.14-.257.257-.14 2.283-1.25-2.282-1.247-.257-.141-.14-.257-1.25-2.282m0-2.083l2.126 3.885 3.887 2.124-3.887 2.128-2.125 3.885-2.126-3.885-3.886-2.128 3.886-2.124 2.126-3.885z" class="cls-3" transform="translate(-1000.463 -8346.132)"/>
    </g>
    <g id="Caminho_9980" class="cls-1">
        <path d="M1063.946 8372.919l-1.902-3.48-.07-.127-.13-.07-3.478-1.902 3.48-1.905.128-.07.07-.129 1.902-3.478 1.903 3.478.07.128.129.07 3.48 1.906-3.48 1.901-.128.07-.07.128-1.904 3.48z" class="cls-2" transform="translate(-1057.324 -8330.075)"/>
        <path d="M1063.946 8362.8l-1.464 2.676-.14.256-.257.141-2.677 1.467 2.676 1.462.258.14.14.258 1.464 2.677 1.465-2.677.14-.258.258-.14 2.676-1.462-2.677-1.467-.257-.14-.14-.257-1.465-2.676m0-2.084l2.342 4.28 4.281 2.345-4.28 2.339-2.343 4.28-2.341-4.28-4.281-2.34 4.281-2.344 2.341-4.28z" class="cls-3" transform="translate(-1057.324 -8330.075)"/>
    </g>
    <g id="Caminho_9981" class="cls-1">
        <path d="M1060.941 8366.908l-.84-1.534-.07-.128-.128-.07-1.538-.843 1.537-.84.129-.071.07-.128.84-1.536.84 1.536.071.128.129.07 1.537.841-1.538.843-.128.07-.07.128-.84 1.534z" class="cls-2" transform="translate(-1005.615 -8355.452)"/>
        <path d="M1060.941 8362.8l-.401.733-.14.258-.258.14-.736.402.737.404.256.14.14.257.402.733.403-.733.14-.256.256-.14.736-.405-.735-.402-.257-.14-.14-.257-.403-.734m0-2.084l1.28 2.338 2.338 1.278-2.339 1.282-1.279 2.335-1.278-2.335-2.34-1.282 2.34-1.278 1.278-2.338z" class="cls-3" transform="translate(-1005.615 -8355.452)"/>
    </g>
    <g id="Caminho_9982" class="cls-1">
        <path d="M1059.645 8364.316l-.382-.699-.07-.128-.129-.07-.698-.382.698-.382.129-.07.07-.128.382-.7.382.7.07.128.129.07.698.382-.699.382-.128.07-.07.128-.382.7z" class="cls-2" transform="translate(-1042.605 -8315.358)"/>
        <path d="M1059.645 8362.8l-.084.154-.153.083.153.084.084.153.084-.153.152-.084-.152-.083-.084-.154m0-2.084l.82 1.5 1.5.82-1.5.821-.82 1.501-.82-1.5-1.501-.822 1.5-.82.82-1.5z" class="cls-3" transform="translate(-1042.605 -8315.358)"/>
    </g>
    <g id="Caminho_9983" class="cls-1">
        <path d="M1059.645 8364.316l-.382-.699-.07-.128-.129-.07-.698-.382.698-.382.129-.07.07-.128.382-.7.382.7.07.128.129.07.698.382-.699.382-.128.07-.07.128-.382.7z" class="cls-2" transform="translate(-1050.938 -8350.775)"/>
        <path d="M1059.645 8362.8l-.084.154-.153.083.153.084.084.153.084-.153.152-.084-.152-.083-.084-.154m0-2.084l.82 1.5 1.5.82-1.5.821-.82 1.501-.82-1.5-1.501-.822 1.5-.82.82-1.5z" class="cls-3" transform="translate(-1050.938 -8350.775)"/>
    </g>
</svg>
