<svg xmlns="http://www.w3.org/2000/svg" id="Grupo_11449" width="68.885" height="50" viewBox="0 0 68.885 50">
    <defs>
        <style>
            .cls-1{fill:#eaf0f7}
        </style>
    </defs>
    <path id="Exclusão_16" d="M19.7 39.4A19.7 19.7 0 0 1 5.771 5.768 19.7 19.7 0 0 1 33.63 33.631 19.567 19.567 0 0 1 19.7 39.4zm-5.626-15.272a1.126 1.126 0 0 0-.845.382 1.11 1.11 0 0 0-.281.813 1.122 1.122 0 0 0 .376.776 10.749 10.749 0 0 0 6.771 2.651 8.5 8.5 0 0 0 6.14-2.7 1.126 1.126 0 0 0-1.592-1.592 6.336 6.336 0 0 1-4.564 2.035 8.837 8.837 0 0 1-5.262-2.083 1.119 1.119 0 0 0-.743-.282zm11.976-9.9a2.735 2.735 0 1 0 2.734 2.736 2.739 2.739 0 0 0-2.734-2.736zm-12.59 0a2.735 2.735 0 1 0 2.734 2.736 2.739 2.739 0 0 0-2.734-2.736z" class="cls-1" transform="translate(15.696 7.089)"/>
    <path id="Caminho_9978" d="M1061.253 8360.716l1.389 2.537 2.539 1.391-2.539 1.392-1.389 2.538-1.389-2.538-2.54-1.392 2.54-1.391z" class="cls-1" transform="translate(-1046.296 -8360.716)"/>
    <path id="Caminho_9984" d="M1061.253 8360.716l1.389 2.537 2.539 1.391-2.539 1.392-1.389 2.538-1.389-2.538-2.54-1.392 2.54-1.391z" class="cls-1" transform="translate(-1000.463 -8319.049)"/>
    <path id="Caminho_9979" d="M1063.336 8360.716l2.125 3.885 3.886 2.124-3.886 2.128-2.125 3.886-2.125-3.886-3.887-2.128 3.887-2.124z" class="cls-1" transform="translate(-1000.463 -8346.132)"/>
    <path id="Caminho_9980" d="M1063.946 8360.716l2.342 4.28 4.281 2.345-4.281 2.339-2.342 4.281-2.341-4.281-4.281-2.339 4.276-2.341z" class="cls-1" transform="translate(-1057.324 -8330.075)"/>
    <path id="Caminho_9981" d="M1060.941 8360.716l1.279 2.338 2.338 1.278-2.338 1.282-1.279 2.335-1.278-2.335-2.339-1.282 2.339-1.278z" class="cls-1" transform="translate(-1005.615 -8355.452)"/>
    <path id="Caminho_9982" d="M1059.645 8360.716l.821 1.5 1.5.819-1.5.821-.821 1.5-.82-1.5-1.5-.821 1.5-.819z" class="cls-1" transform="translate(-1042.605 -8315.358)"/>
    <path id="Caminho_9983" d="M1059.645 8360.716l.821 1.5 1.5.819-1.5.821-.821 1.5-.82-1.5-1.5-.821 1.5-.819z" class="cls-1" transform="translate(-1050.938 -8350.775)"/>
</svg>
