<svg xmlns="http://www.w3.org/2000/svg" width="60.622" height="51" viewBox="0 0 60.622 51">
    <defs>
        <style>
            .cls-2{fill:#eaf0f7}.cls-3,.cls-4{stroke:none}.cls-4{fill:#fff}
        </style>
    </defs>
    <g id="Grupo_11448" transform="translate(-.001 1)">
        <path id="Exclusão_21" fill="#eaf0f7" d="M28.544 47.145h-.125a1.8 1.8 0 0 1-1.148-.407C25.5 45.3 9.837 32.5 4.406 26.466c-5.9-6.558-5.872-15.981.066-21.919a15.565 15.565 0 0 1 21.988 0l2.015 2.012 2.015-2.012a15.567 15.567 0 0 1 21.99 0c5.937 5.937 5.965 15.359.065 21.916-5.7 6.34-22.7 20.135-22.868 20.273a1.8 1.8 0 0 1-1.133.409zm-13-41.679a.681.681 0 0 0-.171.022 14.159 14.159 0 0 0-4 1.95 12.282 12.282 0 0 0-5.105 7.282.668.668 0 0 0 .486.807.718.718 0 0 0 .161.02.664.664 0 0 0 .646-.507c1.6-6.45 8.093-8.25 8.159-8.268a.657.657 0 0 0 .4-.308.665.665 0 0 0-.576-1z" transform="translate(.001 2.855)"/>
        <g id="Caminho_9986" class="cls-2">
            <path d="M631.237 7269.386c-.66 0-1.288-.315-1.682-.843l-3.63-4.857c-.21-.283-.53-.444-.88-.444s-.672.161-.882.443l-3.628 4.858c-.395.528-1.024.843-1.683.843-.8 0-1.52-.445-1.877-1.16-.358-.714-.284-1.556.195-2.196l6.192-8.291c.4-.536 1.013-.843 1.682-.843.67 0 1.282.307 1.683.843l6.193 8.291c.478.64.553 1.482.195 2.196-.358.715-1.078 1.16-1.878 1.16z" class="cls-3" transform="translate(-573.217 -7257.396)"/>
            <path d="M631.237 7268.886c1.317 0 2.07-1.502 1.282-2.556l-6.193-8.292c-.32-.428-.8-.642-1.282-.642-.48 0-.962.214-1.282.642l-6.192 8.292c-.788 1.054-.035 2.556 1.282 2.556.505 0 .98-.238 1.282-.642l3.628-4.858c.32-.43.801-.644 1.282-.644s.962.215 1.282.644l3.63 4.858c.301.404.777.642 1.28.642m0 1c-.815 0-1.593-.39-2.082-1.043l-3.63-4.858c-.157-.212-.368-.243-.48-.243-.112 0-.323.031-.48.242l-3.629 4.859c-.489.653-1.267 1.043-2.083 1.043-.99 0-1.88-.55-2.324-1.435-.444-.886-.351-1.928.241-2.72l6.192-8.291c.496-.664 1.255-1.044 2.083-1.044.828 0 1.588.38 2.083 1.043l6.193 8.292c.592.792.685 1.834.242 2.72-.444.884-1.335 1.435-2.325 1.435z" class="cls-4" transform="translate(-573.217 -7257.396)"/>
        </g>
        <g id="Caminho_9987" class="cls-2">
            <path d="M631.237 7280.54c-.658 0-1.287-.315-1.682-.843l-3.63-4.86c-.21-.28-.53-.442-.88-.442s-.672.161-.882.442l-3.628 4.86c-.396.528-1.025.843-1.683.843-.8 0-1.519-.444-1.877-1.16-.358-.714-.284-1.556.195-2.197l6.192-8.292c.4-.536 1.014-.843 1.682-.843.67 0 1.282.307 1.683.843l6.193 8.292c.478.64.553 1.483.195 2.197-.359.715-1.078 1.16-1.878 1.16z" class="cls-3" transform="translate(-573.217 -7259.915)"/>
            <path d="M631.237 7280.04c1.317 0 2.07-1.503 1.282-2.558l-6.193-8.292c-.32-.427-.8-.642-1.282-.642-.48 0-.962.215-1.282.642l-6.192 8.292c-.788 1.055-.035 2.558 1.282 2.558.505 0 .98-.24 1.282-.643l3.628-4.858c.32-.43.801-.644 1.282-.644s.962.214 1.282.644l3.63 4.858c.301.403.777.643 1.28.643m0 1c-.814 0-1.592-.39-2.08-1.043l-3.631-4.86c-.157-.21-.369-.242-.48-.242-.113 0-.324.031-.48.241l-3.63 4.86c-.49.654-1.269 1.044-2.083 1.044-.99 0-1.88-.55-2.324-1.435-.444-.885-.351-1.928.241-2.721l6.192-8.292c.496-.663 1.255-1.044 2.083-1.044.828 0 1.587.38 2.083 1.044l6.193 8.291c.593.794.685 1.836.242 2.721-.444.886-1.335 1.436-2.325 1.436z" class="cls-4" transform="translate(-573.217 -7259.915)"/>
        </g>
        <g id="Caminho_9988" class="cls-2">
            <path d="M631.237 7291.555c-.659 0-1.287-.315-1.682-.843l-3.63-4.857c-.21-.281-.53-.442-.88-.442-.351 0-.672.16-.882.442l-3.628 4.857c-.396.528-1.024.843-1.683.843-.8 0-1.519-.444-1.877-1.159-.358-.714-.284-1.556.195-2.197l6.192-8.29c.4-.536 1.013-.844 1.682-.844.67 0 1.282.308 1.683.844l6.193 8.29c.478.64.553 1.483.195 2.197-.359.715-1.078 1.159-1.878 1.159z" class="cls-3" transform="translate(-573.217 -7262.4)"/>
            <path d="M631.237 7291.055c1.317 0 2.07-1.501 1.282-2.557l-6.193-8.29c-.32-.429-.8-.643-1.282-.643-.48 0-.962.214-1.282.643l-6.192 8.29c-.788 1.056-.035 2.557 1.282 2.557.505 0 .98-.239 1.282-.642l3.628-4.857c.32-.429.801-.643 1.282-.643s.962.214 1.282.643l3.63 4.857c.301.403.777.642 1.28.642m0 1c-.814 0-1.593-.39-2.081-1.043l-3.63-4.858c-.157-.21-.369-.241-.48-.241-.113 0-.324.03-.481.24l-3.629 4.859c-.49.653-1.268 1.043-2.083 1.043-.99 0-1.88-.55-2.324-1.434-.444-.885-.351-1.928.241-2.721l6.192-8.29c.496-.664 1.255-1.045 2.083-1.045.829 0 1.588.38 2.083 1.045l6.193 8.29c.593.793.685 1.835.242 2.72-.444.885-1.335 1.435-2.325 1.435z" class="cls-4" transform="translate(-573.217 -7262.4)"/>
        </g>
    </g>
</svg>
