<svg xmlns="http://www.w3.org/2000/svg" width="60.146" height="50.5" viewBox="0 0 60.146 50.5">
    <defs>
        <style>
            .cls-2{fill:#fff;stroke:#15d4d8}
        </style>
    </defs>
    <g id="Grupo_11430" transform="translate(-.001 .5)">
        <g id="Exclusão_21" fill="#fff" stroke="none">
            <path d="M28.544 46.645h-.05l-.01-.001h-.065c-.308 0-.596-.102-.832-.295-1.766-1.437-17.403-14.21-22.809-20.218-5.72-6.357-5.699-15.484.048-21.23C7.663 2.063 11.443.5 15.466.5c4.025 0 7.804 1.563 10.64 4.4l2.017 2.013.353.353.353-.353 2.015-2.012C33.68 2.063 37.46.5 41.484.5c4.025 0 7.805 1.563 10.643 4.4 5.745 5.746 5.765 14.872.046 21.229-5.676 6.31-22.64 20.08-22.81 20.219-.236.192-.527.297-.82.297zM15.545 4.965c-.1 0-.2.013-.297.039h-.003l-.003.001c-.209.057-2.098.6-4.148 2.022-2.75 1.908-4.538 4.456-5.312 7.573-.154.623.227 1.257.85 1.413l.005.001.005.001c.096.022.185.033.273.033.537 0 1.002-.365 1.13-.887.632-2.545 2.122-4.643 4.427-6.236 1.767-1.22 3.361-1.665 3.377-1.67.298-.078.549-.27.705-.538.157-.27.199-.586.118-.888-.137-.509-.6-.863-1.127-.863z" transform="translate(.001 2.855)"/>
            <path fill="#15d4d8" d="M28.544 46.145c.178 0 .356-.065.504-.185.17-.139 17.104-13.885 22.754-20.166 5.538-6.155 5.526-14.986-.029-20.54C49.03 2.511 45.376 1 41.485 1S33.94 2.51 31.197 5.254l-2.014 2.013-.707.706-.707-.706-2.016-2.013C23.01 2.511 19.357 1 15.467 1c-3.89 0-7.544 1.51-10.288 4.254-5.555 5.556-5.568 14.387-.03 20.543 5.381 5.98 20.99 18.73 22.754 20.165.148.12.321.182.516.182h.096l.029.001M15.545 4.465c.752 0 1.414.507 1.61 1.235.116.431.055.881-.169 1.268-.222.383-.58.657-1.005.77-.055.016-1.579.455-3.25 1.617-2.188 1.52-3.6 3.513-4.2 5.926-.184.746-.849 1.267-1.616 1.267-.126 0-.251-.015-.385-.045l-.01-.003-.009-.002c-.89-.222-1.434-1.128-1.214-2.019.804-3.238 2.659-5.883 5.512-7.863 2.118-1.47 4.084-2.034 4.301-2.093l.006-.002.007-.001c.138-.036.28-.054.422-.054m12.999 42.679l-.07-.001h-.055c-.425 0-.822-.141-1.148-.408-1.769-1.439-17.434-14.235-22.865-20.27-5.9-6.558-5.872-15.981.066-21.919C7.404 1.615 11.31 0 15.467 0c4.157 0 8.062 1.615 10.993 4.547l2.016 2.012 2.014-2.012C33.422 1.615 37.327 0 41.485 0c4.158 0 8.063 1.615 10.995 4.547 5.937 5.937 5.965 15.359.065 21.916-5.704 6.34-22.697 20.135-22.868 20.273-.323.264-.726.409-1.133.409zM15.545 5.465c-.057 0-.115.008-.171.023-.2.054-2.014.574-3.995 1.95C8.73 9.274 7.01 11.724 6.268 14.72c-.089.357.13.719.486.808.059.013.112.02.16.02.307 0 .573-.208.646-.507 1.602-6.45 8.094-8.25 8.159-8.268.17-.045.313-.154.402-.307.09-.155.114-.336.068-.508-.078-.29-.343-.492-.644-.492z" transform="translate(.001 2.855)"/>
        </g>
        <path id="Caminho_9986" d="M626.326 7263.386l3.63 4.858a1.6 1.6 0 0 0 1.281.642 1.6 1.6 0 0 0 1.282-2.556l-6.193-8.292a1.6 1.6 0 0 0-2.564 0l-6.192 8.292a1.6 1.6 0 0 0 1.282 2.556 1.6 1.6 0 0 0 1.282-.642l3.628-4.858a1.6 1.6 0 0 1 2.564 0z" class="cls-2" transform="translate(-573.217 -7257.396)"/>
        <path id="Caminho_9987" d="M626.326 7274.539l3.63 4.859a1.6 1.6 0 0 0 1.281.642 1.6 1.6 0 0 0 1.282-2.558l-6.193-8.292a1.6 1.6 0 0 0-2.564 0l-6.192 8.292a1.6 1.6 0 0 0 1.282 2.558 1.6 1.6 0 0 0 1.282-.642l3.628-4.859a1.6 1.6 0 0 1 2.564 0z" class="cls-2" transform="translate(-573.217 -7259.915)"/>
        <path id="Caminho_9988" d="M626.326 7285.556l3.63 4.857a1.6 1.6 0 0 0 1.281.642 1.6 1.6 0 0 0 1.282-2.557l-6.193-8.29a1.6 1.6 0 0 0-2.564 0l-6.192 8.29a1.6 1.6 0 0 0 1.282 2.557 1.6 1.6 0 0 0 1.282-.642l3.628-4.857a1.6 1.6 0 0 1 2.564 0z" class="cls-2" transform="translate(-573.217 -7262.4)"/>
    </g>
</svg>
