<svg xmlns="http://www.w3.org/2000/svg" width="59.623" height="50" viewBox="0 0 59.623 50">
    <defs>
        <linearGradient id="linear-gradient" x1=".5" x2=".5" y2="1" gradientUnits="objectBoundingBox">
            <stop offset="0" stop-color="#4a54df"/>
            <stop offset="1" stop-color="#15d4d8"/>
        </linearGradient>
        <style>
            .cls-2{fill:#15d4d8}
        </style>
    </defs>
    <g id="Grupo_11426" transform="translate(-.001)">
        <path id="Exclusão_21" fill="url(#linear-gradient)" d="M28.544 47.145h-.125a1.8 1.8 0 0 1-1.148-.407C25.5 45.3 9.837 32.5 4.406 26.466c-5.9-6.558-5.872-15.981.066-21.919a15.565 15.565 0 0 1 21.988 0l2.015 2.012 2.015-2.012a15.567 15.567 0 0 1 21.99 0c5.937 5.937 5.965 15.359.065 21.916-5.7 6.34-22.7 20.135-22.868 20.273a1.8 1.8 0 0 1-1.133.409zm-13-41.679a.681.681 0 0 0-.171.022 14.159 14.159 0 0 0-4 1.95 12.282 12.282 0 0 0-5.105 7.282.668.668 0 0 0 .486.807.718.718 0 0 0 .161.02.664.664 0 0 0 .646-.507c1.6-6.45 8.093-8.25 8.159-8.268a.657.657 0 0 0 .4-.308.665.665 0 0 0-.576-1z" transform="translate(.001 2.855)"/>
        <path id="Caminho_9986" d="M626.326 7263.386l3.63 4.858a1.6 1.6 0 0 0 1.281.642 1.6 1.6 0 0 0 1.282-2.556l-6.193-8.292a1.6 1.6 0 0 0-2.564 0l-6.192 8.292a1.6 1.6 0 0 0 1.282 2.556 1.6 1.6 0 0 0 1.282-.642l3.628-4.858a1.6 1.6 0 0 1 2.564 0z" class="cls-2" transform="translate(-573.217 -7257.396)"/>
        <path id="Caminho_9987" d="M626.326 7274.539l3.63 4.859a1.6 1.6 0 0 0 1.281.642 1.6 1.6 0 0 0 1.282-2.558l-6.193-8.292a1.6 1.6 0 0 0-2.564 0l-6.192 8.292a1.6 1.6 0 0 0 1.282 2.558 1.6 1.6 0 0 0 1.282-.642l3.628-4.859a1.6 1.6 0 0 1 2.564 0z" class="cls-2" transform="translate(-573.217 -7259.915)"/>
        <path id="Caminho_9988" d="M626.326 7285.556l3.63 4.857a1.6 1.6 0 0 0 1.281.642 1.6 1.6 0 0 0 1.282-2.557l-6.193-8.29a1.6 1.6 0 0 0-2.564 0l-6.192 8.29a1.6 1.6 0 0 0 1.282 2.557 1.6 1.6 0 0 0 1.282-.642l3.628-4.857a1.6 1.6 0 0 1 2.564 0z" class="cls-2" transform="translate(-573.217 -7262.4)"/>
    </g>
</svg>
