<svg xmlns="http://www.w3.org/2000/svg" xmlns:xlink="http://www.w3.org/1999/xlink" id="Grupo_73" width="130" height="17.295" viewBox="0 0 130 17.295">
    <defs>
        <linearGradient id="linear-gradient" x1="-.2" x2="1.856" y1="4.185" y2="-2.766" gradientUnits="objectBoundingBox">
            <stop offset="0" stop-color="#4a54df"/>
            <stop offset="1" stop-color="#15d4d8"/>
        </linearGradient>
        <linearGradient id="linear-gradient-2" x1="4.903" x2="1.996" y1="-13.009" y2="-3.368" xlink:href="#linear-gradient"/>
        <style>
            .cls-4{fill:#fff}
        </style>
    </defs>
    <path id="XMLID_36_" fill="#4a54df" d="M207.2 46.464v-2.111a.833.833 0 0 1 .853-.853h10.921a.833.833 0 0 1 .853.853v2.111a.833.833 0 0 1-.853.853h-10.921a.858.858 0 0 1-.853-.853z" transform="translate(-184.546 -42.81)"/>
    <path id="XMLID_35_" fill="url(#linear-gradient)" d="M207.2 61.764v-2.111a.833.833 0 0 1 .853-.853h10.921a.833.833 0 0 1 .853.853v2.111a.833.833 0 0 1-.853.853h-10.921a.832.832 0 0 1-.853-.853z" transform="translate(-184.546 -51.898)"/>
    <path id="XMLID_34_" fill="url(#linear-gradient-2)" d="M207.2 77.164v-2.111a.833.833 0 0 1 .853-.853h10.921a.833.833 0 0 1 .853.853v2.111a.833.833 0 0 1-.853.853h-10.921a.858.858 0 0 1-.853-.853z" transform="translate(-184.546 -61.046)"/>
    <g id="XMLID_15_">
        <path id="XMLID_27_" d="M160.941 59.186l-3.695-6.252h-2.923v6.252H151.4V42.5h7.349c3.289 0 5.481 2.152 5.481 5.237a4.7 4.7 0 0 1-3.979 4.913l4.1 6.577h-3.41zm.244-11.449a2.614 2.614 0 0 0-2.842-2.639h-4.019v5.319h4.019a2.692 2.692 0 0 0 2.842-2.68z" class="cls-4" transform="translate(-151.4 -42.216)"/>
        <path id="XMLID_25_" d="M262.6 59.186V42.5h2.923v14.129h7.349v2.6H262.6z" class="cls-4" transform="translate(-217.453 -42.216)"/>
        <path id="XMLID_22_" d="M309.3 50.448a8.527 8.527 0 1 1 17.052 0 8.527 8.527 0 1 1-17.052 0zm14.088 0c0-3.451-2.192-6.049-5.522-6.049-3.37 0-5.522 2.6-5.522 6.049s2.156 6.052 5.523 6.052c3.333-.044 5.521-2.642 5.521-6.052z" class="cls-4" transform="translate(-245.193 -41.8)"/>
        <path id="XMLID_19_" d="M383.839 59.127l-1.218-3.207h-7.673l-1.218 3.207h-3.33l6.577-16.727h3.654l6.577 16.727zM378.8 45.364l-3 7.958h6.009z" class="cls-4" transform="translate(-281.487 -42.156)"/>
        <path id="XMLID_16_" d="M434.8 59.186V42.5h6.212c5.2 0 8.729 3.451 8.729 8.364s-3.532 8.364-8.729 8.364H434.8zm11.936-8.323c0-3.248-1.989-5.806-5.725-5.806h-3.289v11.572h3.289a5.507 5.507 0 0 0 5.725-5.765z" class="cls-4" transform="translate(-319.741 -42.216)"/>
    </g>
</svg>
