<svg xmlns="http://www.w3.org/2000/svg" width="49.032" height="50" viewBox="0 0 49.032 50">
    <defs>
        <style>
            .cls-1{fill:#fff}.cls-2,.cls-3{stroke:none}.cls-3{fill:#15d4d8}
        </style>
    </defs>
    <g id="Grupo_11428" transform="translate(0 .001)">
        <g id="Exclusão_17" class="cls-1">
            <path d="M4.744 49.493C2.381 49.36.5 47.395.5 44.998v-1.512l3.14-4.701c2.156-3.209 5.75-5.125 9.617-5.125 1.054 0 2.105.144 3.124.43l2.172.625.03.009.033.004c.37.057.746.086 1.118.086 3.41 0 6.349-2.317 7.15-5.635.629-2.438.148-5.008-1.32-7.052-.761-1.061-1.813-1.852-3.044-2.288-2.477-.934-4.703-2.336-6.614-4.167-1.91-1.83-3.404-3.991-4.442-6.424l-1.532-4.13c-.396-1.066-.25-2.214.4-3.148.65-.934 1.675-1.47 2.813-1.47.693 0 1.362.207 1.935.6.573.391 1.008.94 1.259 1.588l1.31 3.376.003.007.003.006c1.54 3.653 4.768 6.348 8.635 7.211l.36.08.183-.32c.9-1.576 2.204-2.88 3.773-3.77 1.523-.867 3.255-1.324 5.006-1.324 1.744 0 3.472.46 4.996 1.33.864.494 1.647 1.11 2.328 1.827 1.907 1.98 3.36 4.306 4.32 6.917.924 2.513 1.35 5.165 1.265 7.88-.084 2.705-.669 5.31-1.738 7.745-1.097 2.499-2.652 4.688-4.621 6.506l-1.3-.21c-.708-.113-1.427-.17-2.142-.17-1.387 0-2.762.21-4.088.627l-2.534.8c-1.226.383-2.501.577-3.787.577-1.407 0-2.795-.232-4.125-.689-1.437-.502-2.94-.758-4.464-.758-1.685 0-3.336.31-4.905.922l-.037.015-.162-.052-.01-.003-.01-.002c-.435-.12-.884-.182-1.335-.182-1.668 0-3.22.825-4.15 2.206l-4.369 6.253zm36.717-37.124c-.35 0-.68.134-.931.375-.516.5-.548 1.291-.074 1.843 2.477 2.895 3.866 6.59 3.911 10.4.009.73.576 1.317 1.29 1.34h.038c.358 0 .707-.145.959-.4.248-.25.383-.58.38-.93-.044-4.465-1.67-8.789-4.58-12.175-.247-.288-.61-.453-.993-.453z" class="cls-2" transform="translate(0 -.001)"/>
            <path d="M4.5 48.969l4.2-6.011c1.024-1.518 2.73-2.424 4.563-2.424.496 0 .99.067 1.469.2l.02.005.012.004c1.589-.602 3.256-.907 4.958-.907 1.58 0 3.137.265 4.63.786 1.276.439 2.608.661 3.959.661 1.235 0 2.46-.187 3.637-.554l2.534-.8c1.374-.431 2.8-.65 4.238-.65.74 0 1.487.059 2.222.176l1.058.172c1.834-1.74 3.289-3.815 4.325-6.175 1.044-2.376 1.614-4.919 1.697-7.559.082-2.652-.333-5.24-1.235-7.692-.936-2.546-2.352-4.814-4.209-6.74l-.002-.003-.003-.003c-.647-.682-1.392-1.267-2.213-1.737-1.449-.827-3.09-1.264-4.748-1.264-1.665 0-3.31.435-4.76 1.258-1.49.847-2.73 2.086-3.585 3.584l-.366.641-.72-.16c-4.024-.899-7.384-3.704-8.986-7.506l-.006-.013-.005-.013-1.312-3.377c-.214-.552-.585-1.021-1.075-1.356-.489-.335-1.06-.512-1.652-.512-.972 0-1.848.458-2.403 1.256-.555.797-.68 1.778-.342 2.689l1.529 4.118c1.01 2.366 2.465 4.468 4.323 6.248 1.861 1.783 4.028 3.148 6.44 4.058 1.325.47 2.458 1.323 3.278 2.466 1.554 2.164 2.064 4.884 1.4 7.465-.858 3.541-3.996 6.014-7.636 6.014-.397 0-.799-.031-1.194-.091l-.064-.01-.061-.018-2.172-.625c-.974-.272-1.979-.41-2.986-.41-3.7 0-7.14 1.833-9.2 4.903L1 43.637v1.361c0 2.038 1.53 3.724 3.5 3.971m36.96-37.1c.53 0 1.031.229 1.374.627 2.986 3.475 4.655 7.913 4.7 12.496.005.484-.182.941-.525 1.288-.345.348-.824.547-1.314.547H45.642c-.983-.031-1.763-.836-1.775-1.834-.043-3.694-1.39-7.275-3.79-10.08-.65-.756-.604-1.842.106-2.529.345-.332.799-.515 1.278-.515M5 50c-2.757 0-5-2.244-5-5.002v-1.664l3.225-4.827c2.248-3.348 5.999-5.347 10.032-5.347 1.1 0 2.196.15 3.259.448l2.175.626c.345.053.696.08 1.043.08 3.179 0 5.92-2.162 6.665-5.256.593-2.296.14-4.715-1.242-6.64-.702-.979-1.673-1.708-2.808-2.11-2.543-.957-4.827-2.396-6.789-4.275-1.962-1.88-3.496-4.1-4.56-6.6l-1.537-4.14c-.454-1.223-.287-2.538.458-3.608C10.666.614 11.84 0 13.145 0c.794 0 1.561.237 2.217.687.657.449 1.155 1.078 1.443 1.82l1.311 3.376c1.477 3.504 4.574 6.09 8.283 6.917.944-1.654 2.314-3.022 3.96-3.958 1.599-.908 3.415-1.388 5.253-1.388 1.831 0 3.644.482 5.243 1.395.908.52 1.73 1.165 2.443 1.918 1.954 2.026 3.443 4.411 4.428 7.089.946 2.573 1.382 5.288 1.295 8.068-.086 2.769-.685 5.437-1.78 7.93-1.137 2.588-2.752 4.853-4.802 6.73-.04.034-.08.068-.115.108l-1.543-.25c-.68-.108-1.373-.163-2.06-.163-1.337 0-2.662.203-3.94.604l-2.532.8c-1.277.398-2.602.6-3.938.6-1.463 0-2.905-.24-4.287-.716-1.387-.485-2.834-.73-4.302-.73-1.623 0-3.212.298-4.723.887l-.05.14c-.1-.04-.202-.074-.3-.108l-.184-.059c-.392-.108-.796-.163-1.202-.163-1.503 0-2.9.744-3.739 1.99L5 50zm36.46-37.13c-.218 0-.426.083-.583.234-.323.312-.34.81-.042 1.157 2.554 2.985 3.986 6.792 4.032 10.72.006.46.36.832.806.846h.022c.225 0 .445-.091.604-.251.154-.155.237-.36.235-.575-.043-4.347-1.626-8.556-4.458-11.853-.153-.177-.377-.279-.615-.279z" class="cls-3" transform="translate(0 -.001)"/>
        </g>
        <g id="Caminho_9972" class="cls-1">
            <path d="M754.687 7826.743c-1.926 0-3.614-.29-5.016-.86-.944-.382-2.958-1.414-3.584-2.193-.382-.51-.849-.946-1.377-1.291 1.186-.364 2.415-.548 3.664-.548 1.411 0 2.803.236 4.135.702 1.44.494 2.939.744 4.458.744 1.385 0 2.758-.21 4.08-.621l2.536-.802c1.225-.386 2.499-.582 3.786-.582.662 0 1.33.053 1.985.157l.454.074c-.568.453-1.035.772-1.45 1.057-.287.197-.536.368-.766.547-.974.755-2.94 1.648-5.13 2.332-1.874.586-4.744 1.284-7.775 1.284z" class="cls-2" transform="translate(-728.65 -7779.501)"/>
            <path d="M767.369 7821.792c-1.236 0-2.46.188-3.636.559l-2.537.802c-1.37.427-2.793.644-4.23.644-1.574 0-3.127-.26-4.617-.77l-.002-.002h-.003c-1.28-.448-2.615-.674-3.97-.674-.87 0-1.728.092-2.568.276.245.231.471.484.675.756.505.62 2.301 1.601 3.378 2.036 1.342.546 2.967.824 4.828.824 5.373 0 10.973-2.251 12.598-3.51.242-.19.496-.363.79-.565.147-.1.3-.206.461-.319-.388-.037-.779-.057-1.167-.057m0-1c.689 0 1.379.055 2.063.164l1.542.251c-.234.198-.476.397-.708.59-1.059.858-1.8 1.284-2.367 1.725-1.909 1.48-7.788 3.72-13.212 3.72-1.846 0-3.639-.26-5.205-.897-.9-.363-3.066-1.44-3.79-2.349-.538-.72-1.261-1.279-2.093-1.617l.05-.14c1.518-.592 3.121-.888 4.725-.888 1.453 0 2.907.243 4.3.73 1.39.477 2.841.716 4.293.716 1.325 0 2.65-.2 3.932-.599l2.533-.801c1.277-.402 2.605-.605 3.937-.605z" class="cls-3" transform="translate(-728.65 -7779.501)"/>
        </g>
    </g>
</svg>
