<svg xmlns="http://www.w3.org/2000/svg" width="49.032" height="50" viewBox="0 0 49.032 50">
    <defs>
        <style>
            .cls-1{fill:#eaf0f7}
        </style>
    </defs>
    <g id="Grupo_11447" transform="translate(0 .001)">
        <path id="Exclusão_17" d="M5 50a5.007 5.007 0 0 1-5-5v-1.666l3.225-4.827a12.08 12.08 0 0 1 13.291-4.9l2.175.626a6.922 6.922 0 0 0 1.043.08 6.839 6.839 0 0 0 6.666-5.255 7.944 7.944 0 0 0-1.242-6.639 5.832 5.832 0 0 0-2.809-2.11 19.888 19.888 0 0 1-6.789-4.275A19.869 19.869 0 0 1 11 9.433L9.463 5.292a3.877 3.877 0 0 1 .458-3.608 3.926 3.926 0 0 1 6.884.822l1.311 3.376A11.794 11.794 0 0 0 26.4 12.8a10.6 10.6 0 0 1 16.9-2.033 20.178 20.178 0 0 1 4.427 7.089 21.574 21.574 0 0 1-.485 16 19.921 19.921 0 0 1-4.8 6.729 1.106 1.106 0 0 0-.116.109l-1.542-.251a13.131 13.131 0 0 0-6 .441l-2.533.8a13.2 13.2 0 0 1-8.225-.115 13.017 13.017 0 0 0-9.026.155l-.05.14c-.1-.04-.2-.075-.3-.108l-.184-.059a4.507 4.507 0 0 0-4.941 1.826L5 50zm36.461-37.131a.835.835 0 0 0-.626 1.392 16.823 16.823 0 0 1 4.032 10.72.843.843 0 0 0 .806.846h.021a.855.855 0 0 0 .6-.252.8.8 0 0 0 .24-.575 18.492 18.492 0 0 0-4.459-11.853.808.808 0 0 0-.614-.278z" class="cls-1" transform="translate(0 -.001)"/>
        <path id="Caminho_9972" d="M769.432 7820.956l1.541.251c-.233.2-.475.4-.708.591-1.058.857-1.8 1.283-2.367 1.724-2.558 1.983-12.25 5.334-18.416 2.823a12.009 12.009 0 0 1-3.791-2.349 4.921 4.921 0 0 0-2.092-1.617l.05-.141a13.019 13.019 0 0 1 9.025-.158 13.214 13.214 0 0 0 8.225.118l2.533-.8a13.132 13.132 0 0 1 6-.442z" class="cls-1" transform="translate(-728.65 -7779.501)"/>
    </g>
</svg>
