<svg xmlns="http://www.w3.org/2000/svg" id="Grupo_11423" width="44.503" height="50" viewBox="0 0 44.503 50">
    <defs>
        <linearGradient id="linear-gradient" x1=".5" x2=".5" y2="1" gradientUnits="objectBoundingBox">
            <stop offset="0" stop-color="#4a54df"/>
            <stop offset="1" stop-color="#15d4d8"/>
        </linearGradient>
        <style>
            .cls-1{fill:url(#linear-gradient)}
        </style>
    </defs>
    <circle id="Elipse_7509" cx="4.448" cy="4.448" r="4.448" class="cls-1" transform="translate(18.565)"/>
    <path id="União_117" d="M35.593 12.189L32.02 9.414a.458.458 0 0 1 0-.722l3.574-2.778a.452.452 0 0 1 .727.363v2.05c5.046-.958 6.962-2.238 6.962-2.973 0-1.722-8-4.12-21.031-4.12s-21.03 2.4-21.03 4.12c0 .966 3.3 2.823 12.155 3.7a.617.617 0 0 1-.059 1.23.289.289 0 0 1-.061 0C9.271 9.888 0 8.614 0 5.354 0 3.722 2.294 2.394 6.82 1.4A75.777 75.777 0 0 1 22.252 0a75.777 75.777 0 0 1 15.432 1.4c4.525.993 6.819 2.321 6.819 3.952 0 2.213-4.288 3.507-8.183 4.226v2.248a.453.453 0 0 1-.453.456.442.442 0 0 1-.274-.093z" class="cls-1" transform="translate(0 16.745)"/>
    <path id="União_116" d="M22.1 38V19.1h-4.42V38a2.287 2.287 0 0 1-4.58 0V4.622H2.311a2.311 2.311 0 1 1 0-4.622H37.16a2.311 2.311 0 1 1 0 4.622H26.675V38a2.287 2.287 0 0 1-4.575 0z" class="cls-1" transform="translate(3.131 9.712)"/>
</svg>
