<svg xmlns="http://www.w3.org/2000/svg" id="Grupo_11429" width="44.503" height="50" viewBox="0 0 44.503 50">
    <defs>
        <style>
            .cls-1,.cls-2{fill:#fff}.cls-1{stroke:#15d4d8}.cls-3,.cls-5{stroke:none}.cls-5{fill:#15d4d8}
        </style>
    </defs>
    <g id="Elipse_7509" class="cls-1" transform="translate(18.565)">
        <circle cx="4.448" cy="4.448" r="4.448" class="cls-3"/>
        <circle cx="4.448" cy="4.448" r="3.948" fill="none"/>
    </g>
    <g id="União_117" class="cls-2">
        <path d="M35.82 11.732l-3.45-2.679 3.45-2.682v2.56l.593-.112c2.313-.44 4.214-.996 5.496-1.61 1.243-.596 1.873-1.22 1.873-1.855 0-.653-.567-1.248-1.734-1.82-1.016-.497-2.498-.973-4.285-1.374C33.666 1.24 28.157.734 22.252.734c-5.906 0-11.414.506-15.511 1.426-1.787.401-3.269.877-4.286 1.375C1.29 4.105.721 4.7.721 5.354c0 .567.536 1.436 3.088 2.354 2.262.814 5.554 1.452 9.518 1.845.06.006.106.064.1.13-.006.055-.05.1-.104.103l-.017-.002c-1.777-.175-5.184-.587-8.04-1.373C2.193 7.564.5 6.479.5 5.354c0-1.325 2.282-2.555 6.427-3.464C11.024.994 16.467.5 22.252.5S33.48.994 37.577 1.89c4.144.909 6.426 2.14 6.426 3.464 0 1.462-2.833 2.823-7.774 3.734l-.409.076v2.568z" class="cls-3" transform="translate(0 16.745)"/>
        <path d="M35.32 10.71V7.393l-2.135 1.66 2.135 1.657m.547 1.574c-.093 0-.189-.03-.274-.095L32.02 9.414c-.235-.181-.235-.541 0-.722l3.573-2.778c.085-.065.18-.095.273-.095.234 0 .454.187.454.458v2.05c5.046-.957 6.962-2.237 6.962-2.973 0-1.722-8-4.12-21.03-4.12-13.03 0-21.03 2.398-21.03 4.12 0 .966 3.3 2.823 12.154 3.702.336.034.581.336.548.675-.03.317-.297.555-.607.555-.02 0-.04 0-.06-.004C9.27 9.888 0 8.614 0 5.354 0 3.722 2.294 2.394 6.82 1.4 10.948.498 16.43 0 22.252 0c5.823 0 11.303.498 15.432 1.401 4.525.993 6.82 2.321 6.82 3.953 0 2.213-4.289 3.507-8.184 4.226v2.249c0 .27-.22.455-.453.455z" class="cls-5" transform="translate(0 16.745)"/>
    </g>
    <g id="União_116" class="cls-2">
        <path d="M24.39 39.788c-.986 0-1.788-.802-1.788-1.787V18.603H17.18v19.398c0 .985-.802 1.787-1.788 1.787-.985 0-1.787-.802-1.787-1.787V18.603h-.002V4.122H2.311C1.313 4.122.5 3.309.5 2.312.5 1.311 1.313.5 2.311.5H37.16c.999 0 1.811.813 1.811 1.811s-.812 1.81-1.81 1.81H26.174v10.806l.002.072V38c0 .985-.802 1.787-1.788 1.787z" class="cls-3" transform="translate(3.131 9.712)"/>
        <path d="M24.39 39.288c.71 0 1.287-.578 1.287-1.287V14.999l-.001-.052V3.622H37.16c.723 0 1.311-.588 1.311-1.31 0-.724-.588-1.312-1.31-1.312H2.31C1.588 1 1 1.588 1 2.311s.588 1.31 1.311 1.31h11.792v14.482h.002v19.898c0 .71.577 1.287 1.287 1.287S16.68 38.71 16.68 38V18.103h6.422v19.898c0 .71.578 1.287 1.287 1.287m0 1c-1.263 0-2.287-1.025-2.287-2.287V19.103H17.68v18.898c0 1.262-1.025 2.287-2.288 2.287S13.105 39.263 13.105 38V19.103h-.002V4.622H2.311C1.035 4.622 0 3.587 0 2.312 0 1.033 1.035 0 2.311 0H37.16c1.277 0 2.311 1.034 2.311 2.311 0 1.276-1.034 2.31-2.31 2.31H26.674v10.286l.002.092V38c0 1.262-1.024 2.287-2.288 2.287z" class="cls-5" transform="translate(3.131 9.712)"/>
    </g>
</svg>
