<svg xmlns="http://www.w3.org/2000/svg" width="38.319" height="50" viewBox="0 0 38.319 50">
    <g fill="#fff">
        <path d="M27.992 49.5c-.189 0-.372-.054-.545-.16l-8.01-5.327-.277-.185-.277.185-8.011 5.326c-.173.107-.357.161-.546.161-.163 0-.324-.04-.478-.121-.312-.177-.505-.502-.505-.85V34.801l-.231-.147c-1.125-.718-2.18-1.564-3.138-2.515-1.715-1.705-3.063-3.688-4.005-5.896C.994 23.96.5 21.536.5 19.041c0-2.494.494-4.918 1.469-7.203.942-2.206 2.29-4.19 4.005-5.896 1.717-1.706 3.713-3.045 5.934-3.98C14.208.991 16.648.5 19.16.5c2.511 0 4.951.492 7.25 1.461 2.222.936 4.218 2.275 5.933 3.981 1.716 1.706 3.064 3.69 4.006 5.896.975 2.284 1.47 4.708 1.47 7.203 0 .73-.046 1.476-.135 2.216-.54 4.46-2.709 8.58-6.107 11.6-.74.658-1.538 1.262-2.371 1.793l-.231.148V48.529c0 .13-.026.255-.077.373-.086.201-.238.37-.428.477-.154.08-.314.121-.478.121zm-3.145-19.837c.222.085.466.13.706.13.211 0 .417-.033.613-.097l.003-.002h.004c.177-.063.34-.147.484-.25l.01-.007.01-.008.013-.01.03-.02.027-.024.027-.023.003-.002.002-.002c.552-.445.828-1.158.721-1.858v-.007l-.002-.006-1.048-5.828 4.373-4.147.004-.003.003-.003c.538-.53.749-1.302.549-2.014l-.004-.014-.005-.014c-.252-.726-.888-1.248-1.623-1.333l-6.101-.872-2.712-5.356-.002-.002v-.003c-.329-.63-.99-1.007-1.769-1.007-.779 0-1.441.376-1.772 1.006l-.001.003-.002.003-2.71 5.356-6.1.872c-.725.084-1.376.619-1.623 1.333l-.007.018-.004.018c-.189.717.022 1.485.55 2.005l.003.004.004.003 4.373 4.147-1.047 5.828-.001.006-.001.007c-.113.736.188 1.467.785 1.909.32.254.732.394 1.159.394.323 0 .646-.08.933-.23l5.461-2.787 5.458 2.788c.081.042.152.073.226.1z"/>
        <path fill="#15d4d8" d="M27.992 49c.08 0 .16-.02.24-.061.091-.053.165-.136.207-.235.024-.055.036-.114.036-.175V34.524l.462-.295c.81-.518 1.587-1.105 2.307-1.745 3.308-2.94 5.419-6.949 5.944-11.287.087-.72.13-1.446.13-2.156 0-2.427-.48-4.785-1.429-7.007-.917-2.146-2.228-4.077-3.898-5.737-1.67-1.66-3.613-2.964-5.774-3.875C23.979 1.478 21.604 1 19.16 1c-2.445 0-4.82.478-7.058 1.422-2.161.91-4.104 2.214-5.775 3.875-1.67 1.66-2.982 3.59-3.898 5.737C1.481 14.257 1 16.614 1 19.04c0 2.427.48 4.784 1.429 7.006.917 2.148 2.228 4.078 3.898 5.737.932.926 1.96 1.75 3.054 2.448l.462.295v14.002c0 .163.095.323.244.41.08.04.16.061.239.061.093 0 .186-.028.277-.083l8.003-5.32.554-.369.553.368 8.003 5.322c.09.054.183.082.276.082m-3.318-18.867c-.092-.034-.183-.074-.283-.126l-5.228-2.67-5.231 2.67c-.358.187-.76.286-1.163.286-.536 0-1.055-.176-1.463-.497-.743-.553-1.116-1.464-.976-2.382l.002-.013.003-.013 1-5.562-4.178-3.96-.007-.008-.007-.007c-.655-.645-.917-1.599-.683-2.488l.01-.037.012-.036c.313-.904 1.11-1.556 2.03-1.665l5.837-.834 2.593-5.124.003-.006.004-.007c.418-.797 1.246-1.273 2.214-1.273.97 0 1.796.477 2.212 1.277l.002.004.003.005 2.594 5.124 5.838.834c.92.11 1.716.76 2.03 1.664l.01.03.008.028c.25.887-.01 1.847-.68 2.505l-.006.007-.007.006-4.177 3.96 1 5.563.002.013.002.013c.134.876-.211 1.766-.9 2.323l-.005.004-.005.004-.007.006-.05.045-.049.032-.01.007-.019.014c-.183.132-.389.239-.611.316l-.008.003-.007.002c-.246.082-.505.123-.77.123-.298 0-.602-.055-.879-.16M27.992 50c-.282 0-.562-.081-.816-.24l-8.016-5.331-8.018 5.33c-.254.16-.534.241-.816.241-.242 0-.486-.06-.717-.182-.472-.264-.766-.761-.766-1.289V35.075c-1.157-.738-2.234-1.6-3.221-2.582-1.762-1.75-3.145-3.787-4.113-6.053C.508 24.093 0 21.604 0 19.04c0-2.563.508-5.052 1.51-7.4.967-2.266 2.35-4.302 4.112-6.053C7.384 3.836 9.433 2.46 11.713 1.5 14.075.505 16.58 0 19.16 0c2.578 0 5.083.505 7.445 1.5 2.28.961 4.33 2.336 6.09 4.088 1.762 1.751 3.146 3.787 4.114 6.053 1.002 2.348 1.51 4.837 1.51 7.4 0 .753-.047 1.518-.138 2.275-.555 4.582-2.782 8.813-6.272 11.915-.766.682-1.58 1.296-2.434 1.84V48.53c0 .2-.04.393-.118.572-.128.297-.352.553-.648.717-.231.122-.475.182-.717.182zm-8.829-23.785l5.686 2.903c.064.034.117.057.171.076.167.065.351.1.533.1.157 0 .31-.025.455-.073.131-.046.251-.107.357-.183.015-.012.03-.024.049-.036.015-.014.033-.028.051-.043.414-.334.621-.868.54-1.394l-1.094-6.094 4.568-4.332c.409-.402.57-.985.419-1.521-.19-.548-.667-.94-1.214-1.001l-6.366-.91-2.83-5.588c-.24-.462-.736-.738-1.325-.738-.59 0-1.086.276-1.329.738l-2.828 5.588-6.365.91c-.54.06-1.027.462-1.214 1-.143.544.017 1.127.418 1.522l4.57 4.332-1.096 6.094c-.085.555.144 1.106.595 1.437.234.188.538.291.855.291.244 0 .487-.06.703-.175l5.691-2.903z"/>
    </g>
</svg>
