<svg xmlns="http://www.w3.org/2000/svg" width="38.319" height="50" viewBox="0 0 38.319 50">
    <defs>
        <linearGradient id="5m5kmrke1a" x1=".5" x2=".5" y2="1" gradientUnits="objectBoundingBox">
            <stop offset="0" stop-color="#4a54df"/>
            <stop offset="1" stop-color="#15d4d8"/>
        </linearGradient>
    </defs>
    <path fill="url(#5m5kmrke1a)" d="M27.176 49.76l-8.016-5.331-8.018 5.331a1.505 1.505 0 0 1-1.533.059 1.489 1.489 0 0 1-.766-1.289V35.075a19.265 19.265 0 0 1-3.221-2.582 19.044 19.044 0 0 1-4.113-6.053 18.893 18.893 0 0 1 0-14.8A19.19 19.19 0 0 1 32.7 5.588a19.052 19.052 0 0 1 4.113 6.054 18.742 18.742 0 0 1 1.51 7.4 19.125 19.125 0 0 1-8.844 16.03v13.457a1.438 1.438 0 0 1-.118.572 1.5 1.5 0 0 1-.649.718 1.5 1.5 0 0 1-1.532-.059zm-2.327-20.642a1.274 1.274 0 0 0 .171.076 1.49 1.49 0 0 0 .533.1 1.447 1.447 0 0 0 .455-.072 1.394 1.394 0 0 0 .356-.183l.049-.036.051-.043a1.506 1.506 0 0 0 .541-1.394l-1.1-6.094 4.569-4.332a1.552 1.552 0 0 0 .418-1.522 1.482 1.482 0 0 0-1.214-1l-6.366-.909-2.83-5.588a1.561 1.561 0 0 0-2.653 0l-2.828 5.588-6.365.909a1.5 1.5 0 0 0-1.214 1 1.578 1.578 0 0 0 .418 1.522l4.569 4.332-1.1 6.094a1.5 1.5 0 0 0 .6 1.437 1.368 1.368 0 0 0 .855.291 1.511 1.511 0 0 0 .7-.175l5.692-2.9z"/>
</svg>
