<svg xmlns="http://www.w3.org/2000/svg" width="50.931" height="50" viewBox="0 0 50.931 50">
    <defs>
        <style>
            .cls-1{fill:#fff}.cls-2,.cls-3{stroke:none}.cls-3{fill:#15d4d8}
        </style>
    </defs>
    <g id="Select_the_mood">
        <g id="Exclusão_20" class="cls-1">
            <path d="M12.61 24.718c-3.235 0-6.276-1.26-8.563-3.547C1.76 18.883.5 15.843.5 12.609c0-3.235 1.26-6.276 3.547-8.564C6.334 1.76 9.375.5 12.61.5c3.235 0 6.275 1.26 8.562 3.545 2.287 2.287 3.546 5.328 3.546 8.564 0 3.234-1.26 6.275-3.546 8.562-2.287 2.287-5.328 3.547-8.562 3.547zm-3.603-9.776c-.35 0-.684.15-.916.413-.444.505-.397 1.277.106 1.722.998.881 2.747 1.823 4.664 1.823 1.6 0 3.042-.631 4.284-1.875.23-.227.357-.533.357-.86 0-.327-.126-.634-.356-.865-.232-.23-.538-.357-.864-.357-.326 0-.632.127-.863.356-.767.767-1.631 1.156-2.568 1.156-1.654 0-3.023-1.195-3.036-1.207-.223-.197-.51-.306-.808-.306zm7.665-6.336c-1.24 0-2.25 1.01-2.25 2.25 0 1.241 1.01 2.25 2.25 2.25s2.25-1.009 2.25-2.25c0-1.24-1.01-2.25-2.25-2.25zm-8.058 0c-1.24 0-2.25 1.01-2.25 2.25 0 1.241 1.01 2.25 2.25 2.25 1.241 0 2.25-1.009 2.25-2.25 0-1.24-1.009-2.25-2.25-2.25z" class="cls-2" transform="translate(12.857)"/>
            <path d="M12.61 24.218c3.1 0 6.015-1.208 8.207-3.4 2.192-2.193 3.4-5.108 3.4-8.21 0-3.102-1.207-6.017-3.4-8.209C18.625 2.207 15.71 1 12.61 1c-3.1 0-6.016 1.207-8.208 3.4C2.208 6.591 1 9.506 1 12.608c0 3.1 1.208 6.015 3.401 8.208 2.193 2.193 5.108 3.401 8.208 3.401m-3.602-9.776c.42 0 .826.154 1.139.432.012.01 1.247 1.08 2.705 1.08.81 0 1.535-.33 2.215-1.009.325-.324.757-.502 1.216-.502.46 0 .891.178 1.218.504.324.325.502.757.502 1.22 0 .46-.18.891-.503 1.212-1.34 1.34-2.9 2.02-4.638 2.02-2.056 0-3.928-1.005-4.996-1.948-.708-.627-.775-1.716-.149-2.426.327-.37.797-.583 1.29-.583m7.666-6.336c1.517 0 2.75 1.234 2.75 2.75 0 1.517-1.233 2.75-2.75 2.75-1.516 0-2.75-1.233-2.75-2.75 0-1.516 1.234-2.75 2.75-2.75m-8.058 0c1.517 0 2.75 1.234 2.75 2.75 0 1.517-1.233 2.75-2.75 2.75-1.516 0-2.75-1.233-2.75-2.75 0-1.516 1.234-2.75 2.75-2.75m3.995 17.112c-3.367 0-6.534-1.312-8.915-3.693C1.312 19.143 0 15.976 0 12.609 0 9.24 1.312 6.073 3.694 3.692 6.074 1.312 9.24 0 12.609 0c3.369 0 6.535 1.311 8.915 3.692 2.382 2.38 3.693 5.548 3.693 8.917 0 3.368-1.311 6.534-3.693 8.916-2.38 2.381-5.547 3.693-8.915 3.693zm-3.602-9.776c-.207 0-.404.089-.54.244-.263.298-.235.754.061 1.017.93.82 2.556 1.697 4.333 1.697 1.463 0 2.785-.582 3.93-1.728.136-.135.21-.315.211-.508 0-.193-.075-.375-.21-.51-.136-.136-.317-.21-.51-.21s-.374.074-.51.21c-.864.863-1.846 1.3-2.92 1.3-1.84 0-3.307-1.277-3.369-1.331-.131-.117-.3-.18-.476-.18zm7.665-6.336c-.964 0-1.75.785-1.75 1.75s.786 1.75 1.75 1.75c.965 0 1.75-.785 1.75-1.75s-.785-1.75-1.75-1.75zm-8.058 0c-.965 0-1.75.785-1.75 1.75s.785 1.75 1.75 1.75c.966 0 1.75-.785 1.75-1.75s-.784-1.75-1.75-1.75z" class="cls-3" transform="translate(12.857)"/>
        </g>
        <g id="Exclusão_19" class="cls-1">
            <path d="M12.609 24.716C5.932 24.716.5 19.284.5 12.606c0-3.233 1.26-6.273 3.547-8.56C6.334 1.759 9.375.5 12.61.5c3.234 0 6.274 1.26 8.56 3.546 2.288 2.286 3.547 5.326 3.547 8.56 0 3.235-1.26 6.276-3.546 8.563-2.287 2.287-5.327 3.547-8.561 3.547zm-.154-9.581c-1.411 0-2.683.556-3.78 1.653-.211.211-.329.493-.33.794 0 .302.117.585.33.798.212.215.496.334.798.334.302 0 .586-.119.8-.334.653-.653 1.39-.985 2.189-.985 1.394 0 2.561.996 2.61 1.039.205.18.47.28.741.28.325 0 .634-.14.847-.385.198-.224.298-.514.28-.814-.019-.3-.153-.576-.379-.775-.877-.776-2.416-1.605-4.106-1.605zm4.217-6.53c-1.24 0-2.25 1.01-2.25 2.251 0 1.242 1.01 2.251 2.25 2.251s2.25-1.01 2.25-2.25c0-1.242-1.01-2.252-2.25-2.252zm-8.058 0c-1.24 0-2.25 1.01-2.25 2.251 0 1.242 1.01 2.251 2.25 2.251 1.241 0 2.25-1.01 2.25-2.25 0-1.242-1.009-2.252-2.25-2.252z" class="cls-2" transform="translate(25.714 24.784)"/>
            <path d="M12.609 24.216c3.1 0 6.015-1.208 8.207-3.4 2.193-2.193 3.4-5.108 3.4-8.21 0-3.1-1.207-6.015-3.4-8.207C18.624 2.207 15.71 1 12.61 1 9.509 1 6.593 2.207 4.4 4.4 2.208 6.591 1 9.506 1 12.605c0 6.402 5.208 11.61 11.609 11.61m-.154-9.581c1.83 0 3.492.894 4.437 1.73.326.288.52.685.547 1.12.026.432-.117.849-.404 1.174-.308.352-.753.555-1.222.555-.391 0-.77-.143-1.069-.403-.03-.026-1.084-.916-2.282-.916-.67 0-1.272.275-1.835.838-.308.31-.718.481-1.154.481-.437 0-.847-.172-1.153-.481-.306-.308-.475-.716-.475-1.153.001-.434.171-.841.477-1.146 1.194-1.194 2.584-1.799 4.133-1.799m4.217-6.53c1.516 0 2.75 1.235 2.75 2.751 0 1.517-1.234 2.751-2.75 2.751-1.517 0-2.75-1.234-2.75-2.75 0-1.517 1.233-2.752 2.75-2.752m-8.058 0c1.517 0 2.75 1.235 2.75 2.751 0 1.517-1.233 2.751-2.75 2.751-1.516 0-2.75-1.234-2.75-2.75 0-1.517 1.234-2.752 2.75-2.752m3.995 17.111C5.657 25.216 0 19.56 0 12.606 0 9.24 1.312 6.074 3.694 3.692 6.075 1.312 9.242 0 12.609 0c3.368 0 6.534 1.311 8.914 3.692 2.382 2.381 3.693 5.547 3.693 8.914 0 3.368-1.31 6.535-3.693 8.916-2.38 2.382-5.546 3.694-8.914 3.694zm-.154-9.581c-1.274 0-2.426.507-3.426 1.506-.117.117-.183.274-.184.442 0 .168.066.326.184.445.119.12.276.186.444.186.167 0 .325-.066.444-.186.753-.752 1.61-1.133 2.545-1.133 1.589 0 2.883 1.114 2.937 1.16.117.103.264.159.414.159.18 0 .352-.078.47-.214.112-.126.168-.287.157-.455-.01-.167-.085-.32-.21-.43-.809-.716-2.225-1.48-3.775-1.48zm4.217-6.53c-.965 0-1.75.786-1.75 1.751 0 .966.785 1.751 1.75 1.751s1.75-.785 1.75-1.75c0-.966-.785-1.752-1.75-1.752zm-8.058 0c-.965 0-1.75.786-1.75 1.751 0 .966.785 1.751 1.75 1.751s1.75-.785 1.75-1.75c0-.966-.785-1.752-1.75-1.752z" class="cls-3" transform="translate(25.714 24.784)"/>
        </g>
        <g id="Exclusão_18" class="cls-1">
            <path d="M12.61 24.716c-3.234 0-6.275-1.26-8.563-3.547C1.76 18.88.5 15.839.5 12.605c0-3.233 1.26-6.273 3.547-8.56C6.335 1.76 9.376.5 12.609.5c3.235 0 6.275 1.26 8.561 3.545 2.287 2.287 3.546 5.327 3.546 8.56 0 3.235-1.26 6.276-3.546 8.564-2.286 2.287-5.326 3.547-8.56 3.547zm-2.778-8.851c-.582 0-1.056.474-1.056 1.057s.474 1.058 1.056 1.058h5.623c.583 0 1.057-.475 1.057-1.058 0-.583-.474-1.057-1.057-1.057H9.832zm6.841-7.26c-1.24 0-2.25 1.01-2.25 2.251 0 1.241 1.01 2.25 2.25 2.25s2.25-1.009 2.25-2.25-1.01-2.25-2.25-2.25zm-8.058 0c-1.241 0-2.251 1.01-2.251 2.251 0 1.241 1.01 2.25 2.25 2.25 1.242 0 2.251-1.009 2.251-2.25s-1.01-2.25-2.25-2.25z" class="cls-2" transform="translate(0 24.784)"/>
            <path d="M12.61 24.216c3.1 0 6.015-1.208 8.207-3.4 2.192-2.194 3.399-5.11 3.399-8.21 0-3.1-1.207-6.015-3.4-8.207C18.627 2.207 15.71 1 12.61 1 9.51 1 6.594 2.207 4.4 4.399 2.208 6.591 1 9.505 1 12.605c0 3.101 1.208 6.017 3.4 8.21 2.194 2.193 5.11 3.4 8.21 3.4m-2.778-8.85h5.623c.858 0 1.557.699 1.557 1.557 0 .86-.699 1.558-1.557 1.558H9.832c-.858 0-1.556-.699-1.556-1.558 0-.858.698-1.557 1.556-1.557m6.841-7.26c1.516 0 2.75 1.234 2.75 2.751s-1.234 2.75-2.75 2.75c-1.517 0-2.75-1.233-2.75-2.75s1.233-2.75 2.75-2.75m-8.058 0c1.516 0 2.75 1.233 2.75 2.75s-1.234 2.75-2.75 2.75c-1.517 0-2.751-1.233-2.751-2.75s1.234-2.75 2.75-2.75m3.995 17.11c-3.367 0-6.533-1.312-8.916-3.694C1.312 19.14 0 15.973 0 12.605c0-3.367 1.312-6.532 3.693-8.913C6.076 1.312 9.243 0 12.61 0c3.369 0 6.535 1.311 8.915 3.692 2.38 2.38 3.692 5.546 3.692 8.913 0 3.369-1.311 6.535-3.692 8.917-2.38 2.382-5.547 3.694-8.915 3.694zm-2.777-8.851c-.306 0-.556.25-.556.557 0 .308.25.558.556.558h5.623c.307 0 .557-.25.557-.558 0-.307-.25-.557-.557-.557H9.832zm6.841-7.26c-.965 0-1.75.786-1.75 1.751 0 .965.785 1.75 1.75 1.75s1.75-.785 1.75-1.75-.785-1.75-1.75-1.75zm-8.058 0c-.966 0-1.751.786-1.751 1.751 0 .965.785 1.75 1.75 1.75.966 0 1.751-.785 1.751-1.75s-.785-1.75-1.75-1.75z" class="cls-3" transform="translate(0 24.784)"/>
        </g>
    </g>
</svg>
