<svg xmlns="http://www.w3.org/2000/svg" width="50.931" height="50" viewBox="0 0 50.931 50">
    <defs>
        <linearGradient id="linear-gradient" x1=".5" x2=".5" y2="1" gradientUnits="objectBoundingBox">
            <stop offset="0" stop-color="#4a54df"/>
            <stop offset="1" stop-color="#15d4d8"/>
        </linearGradient>
        <style>
            .cls-1{fill:url(#linear-gradient)}
        </style>
    </defs>
    <g id="Select_the_mood">
        <path id="Exclusão_20" d="M12.609 25.218A12.609 12.609 0 0 1 3.694 3.692a12.609 12.609 0 0 1 17.83 17.833 12.524 12.524 0 0 1-8.915 3.693zm-3.6-9.776a.721.721 0 0 0-.479 1.26 6.887 6.887 0 0 0 4.333 1.7 5.434 5.434 0 0 0 3.93-1.727.721.721 0 0 0-1.019-1.019 4.057 4.057 0 0 1-2.921 1.3 5.664 5.664 0 0 1-3.368-1.332.717.717 0 0 0-.478-.182zm7.665-6.336a1.75 1.75 0 1 0 1.75 1.75 1.752 1.752 0 0 0-1.752-1.75zm-8.058 0a1.75 1.75 0 1 0 1.75 1.75 1.752 1.752 0 0 0-1.752-1.75z" class="cls-1" transform="translate(12.857)"/>
        <path id="Exclusão_19" d="M12.609 25.216a12.61 12.61 0 1 1 8.915-3.694 12.624 12.624 0 0 1-8.915 3.694zm-.154-9.581a4.741 4.741 0 0 0-3.425 1.506.628.628 0 1 0 .888.887 3.535 3.535 0 0 1 2.544-1.133 5 5 0 0 1 2.938 1.161.628.628 0 0 0 1.041-.51.623.623 0 0 0-.21-.431 5.992 5.992 0 0 0-3.776-1.48zm4.218-6.53a1.751 1.751 0 1 0 1.75 1.751 1.753 1.753 0 0 0-1.751-1.751zm-8.059 0a1.751 1.751 0 1 0 1.751 1.751 1.752 1.752 0 0 0-1.751-1.751z" class="cls-1" transform="translate(25.714 24.784)"/>
        <path id="Exclusão_18" d="M12.609 25.216A12.608 12.608 0 0 1 3.693 3.692a12.608 12.608 0 0 1 17.831 17.83 12.522 12.522 0 0 1-8.915 3.694zm-2.777-8.851a.557.557 0 0 0 0 1.115h5.623a.557.557 0 1 0 0-1.115zm6.841-7.26a1.751 1.751 0 1 0 1.75 1.751 1.753 1.753 0 0 0-1.75-1.751zm-8.059 0a1.751 1.751 0 1 0 1.75 1.751 1.753 1.753 0 0 0-1.749-1.751z" class="cls-1" transform="translate(0 24.784)"/>
    </g>
</svg>
