<svg xmlns="http://www.w3.org/2000/svg" width="40.473" height="50.202" viewBox="0 0 40.473 50.202">
    <g fill="#fff">
        <path d="M-4710.786-5814.314c-10.71 0-19.422-8.712-19.422-19.42 0-10.71 8.712-19.422 19.422-19.422 10.708 0 19.42 8.713 19.42 19.421 0 10.709-8.712 19.42-19.42 19.42zm-.45-16.172l.056.002h9.427c1.205 0 2.185-.98 2.185-2.185 0-1.204-.98-2.183-2.185-2.183h-7.355v-11.508c0-1.204-.98-2.184-2.184-2.184-1.204 0-2.184.98-2.184 2.184v13.69c0 1.206.98 2.186 2.184 2.186l.051-.002h.004zm8.564-14.347l-1.932 2.619-.098.132v1.585h5.064v-2.002H-4701.725l1.933-2.626.098-.132v-1.577h-5.008v2H-4702.672zm11.937-5.152h-3.064 3.064zm-3.064-.002v-.253l2.422-3.285.585-.794v.246l-2.422 3.29-.585.796zm-7.546-9.193h-3.065v-.257l2.422-3.282.587-.795v.246l-2.422 3.29-.586.797h3.064v.001zm-.056-4.336H-4704.41h3.01z" transform="translate(4730.708 5864.016)"/>
        <path fill="#15d4d8" d="M-4710.786-5814.814c10.433 0 18.92-8.488 18.92-18.92 0-10.434-8.487-18.922-18.92-18.922-10.434 0-18.922 8.488-18.922 18.921s8.488 18.92 18.922 18.92m-.451-15.17h-.055c-1.48 0-2.684-1.204-2.684-2.684v-13.691c0-1.48 1.204-2.684 2.684-2.684 1.48 0 2.684 1.204 2.684 2.684v11.008h6.855c1.48 0 2.685 1.204 2.685 2.683 0 1.48-1.204 2.685-2.685 2.685h-9.427c-.02 0-.038 0-.057-.002m7.575-14.347h-1.54v-3.001h6.008v2.241l-.195.264-1.347 1.83H-4699.138v3.001h-6.064v-2.249l.196-.264 1.344-1.822m-7.124 30.519c-10.985 0-19.922-8.936-19.922-19.92 0-10.985 8.937-19.922 19.922-19.922 10.984 0 19.92 8.937 19.92 19.921 0 10.985-8.936 19.92-19.92 19.92zm-.45-17.173h.019l.01.001.027.002h9.427c.93 0 1.685-.756 1.685-1.685 0-.928-.756-1.683-1.685-1.683h-7.855v-12.008c0-.929-.756-1.684-1.684-1.684-.928 0-1.684.755-1.684 1.684v13.69c0 .93.756 1.686 1.684 1.686l.02-.001h.009c.01-.002.018-.002.027-.002zm7.034-15.347v1h2.52l-2.52 3.417v.92h4.064V-5842h-2.576l2.52-3.422v-.913h-4.008zm13.967-3.15h-4.064v-.92l2.52-3.418h-2.52v-1h4.007v.913l-2.519 3.423h2.576v1.001zm-10.61-9.196h-4.065v-.921l2.52-3.415h-2.52v-1h4.01v.912l-2.52 3.423h2.575v1.001z" transform="translate(4730.708 5864.016)"/>
    </g>
</svg>
