<svg xmlns="http://www.w3.org/2000/svg" width="40.928" height="51.658" viewBox="0 0 40.928 51.658">
    <defs>
        <style>
            .cls-2{fill:#eaf0f7;font-size:7px;font-family:ProximaNova-Bold,Proxima Nova;font-weight:700}
        </style>
    </defs>
    <g id="Grupo_11477" transform="translate(-1563.707 -584.342)">
        <path id="Exclusão_50" fill="#eaf0f7" d="M-9585.159-4984.318A19.863 19.863 0 0 1-9605-5004.16a19.863 19.863 0 0 1 19.841-19.84 19.863 19.863 0 0 1 19.841 19.841 19.863 19.863 0 0 1-19.841 19.841zm-.448-17.105h9.447a1.677 1.677 0 0 0 1.675-1.675 1.678 1.678 0 0 0-1.675-1.678h-7.825v-11.961a1.679 1.679 0 0 0-1.678-1.675 1.677 1.677 0 0 0-1.675 1.675v13.639a1.677 1.677 0 0 0 1.675 1.675.4.4 0 0 0 .056 0zm8.466-14.029l-2.2 2.989v.805h3.556v-.875h-2.254l2.2-3v-.8h-3.5v.875z" transform="translate(11168.707 5620.318)"/>
        <text id="Z_" class="cls-2" transform="translate(1599.635 599.5)">
            <tspan x="0" y="0">Z</tspan>
        </text>
        <text id="Z_2" class="cls-2" transform="translate(1589.068 590.342)">
            <tspan x="0" y="0">Z</tspan>
        </text>
    </g>
</svg>
