<svg xmlns="http://www.w3.org/2000/svg" id="united-states-of-america" width="27.012" height="27.012" viewBox="0 0 27.012 27.012">
    <defs>
        <style>
            .cls-1{fill:#c42126}.cls-2{fill:#e7e7e7}.cls-3{fill:#dc3027}.cls-4{fill:#f3f4f5}.cls-5{fill:#e73625}.cls-7{fill:#efefef}
        </style>
    </defs>
    <g id="Grupo_52" transform="translate(.056)">
        <rect id="Ret창ngulo_36" width="26.892" class="cls-1" transform="translate(.005 14.769)"/>
        <rect id="Ret창ngulo_37" width="24.089" class="cls-1" transform="translate(1.406 7.396)"/>
        <rect id="Ret창ngulo_38" width="26.004" class="cls-1" transform="translate(.448 9.854)"/>
        <path id="Caminho_185" d="M223.779 0c-.265 0-.528.01-.79.025h1.58c-.262-.015-.525-.025-.79-.025z" class="cls-1" transform="translate(-210.328)"/>
        <rect id="Ret창ngulo_39" width="26.9" class="cls-1" transform="translate(0 12.312)"/>
    </g>
    <path id="Caminho_186" d="M289.7 45.982h6.449a13.576 13.576 0 0 0-2.643-2.457h-4.843a12.835 12.835 0 0 1 1.037 2.457z" class="cls-2" transform="translate(-272.205 -41.043)"/>
    <path id="Caminho_187" d="M245.978 2.888h4.843A13.432 13.432 0 0 0 243.812.43h-.412c1.221.154 1.784 1.061 2.578 2.458z" class="cls-3" transform="translate(-229.516 -.405)"/>
    <path id="Caminho_188" d="M326.318 132.167a13.415 13.415 0 0 0-.958-2.457h-7.42c.15.789.269 1.613.357 2.457z" class="cls-2" transform="translate(-299.809 -122.313)"/>
    <path id="Caminho_189" d="M300.5 89.069h7.837a13.515 13.515 0 0 0-1.6-2.457h-6.846a21.683 21.683 0 0 1 .609 2.457z" class="cls-3" transform="translate(-282.785 -81.673)"/>
    <path id="Caminho_190" d="M329.178 218.35h8.179c.039-.416.061-.837.061-1.262 0-.4-.021-.8-.056-1.195h-8.182c.027.817.026 1.64-.002 2.457z" class="cls-2" transform="translate(-310.406 -203.581)"/>
    <path id="Caminho_191" d="M326.967 175.259a13.447 13.447 0 0 0-.448-2.457h-8.365c.084.8.139 1.628.167 2.457z" class="cls-3" transform="translate(-300.011 -162.948)"/>
    <path id="Caminho_192" d="M315.465 304.532h7.525a13.4 13.4 0 0 0 .974-2.457h-8.135c-.09.845-.211 1.669-.364 2.457z" class="cls-2" transform="translate(-297.475 -284.849)"/>
    <path id="Caminho_193" d="M329.843 261.445a13.423 13.423 0 0 0 .462-2.457h-8.434c-.029.83-.086 1.653-.172 2.457z" class="cls-3" transform="translate(-303.354 -244.219)"/>
    <path id="Caminho_194" d="M294 390.718a13.583 13.583 0 0 0 2.682-2.457h-6.337a12.55 12.55 0 0 1-1.056 2.457z" class="cls-2" transform="translate(-272.794 -366.12)"/>
    <g id="Grupo_53" transform="translate(12.935 19.684)">
        <path id="Caminho_195" d="M303.625 347.624h6.575a13.526 13.526 0 0 0 1.625-2.457h-7.581a21.373 21.373 0 0 1-.619 2.457z" class="cls-3" transform="translate(-299.245 -345.167)"/>
        <path id="Caminho_196" d="M226.9 473.46h-.082z" class="cls-3" transform="translate(-226.818 -466.141)"/>
        <path id="Caminho_197" d="M236.837 433.773a13.444 13.444 0 0 0 7.7-2.413h-4.887c-.867 1.495-1.439 2.413-2.813 2.413z" class="cls-3" transform="translate(-236.266 -426.445)"/>
    </g>
    <path id="Caminho_198" d="M228.744 473.519c-.164 0-.327 0-.489-.01.164.005.327.01.489.01z" class="cls-1" transform="translate(-215.238 -446.506)"/>
    <path id="Caminho_199" d="M67.591 43.525H56.39a13.576 13.576 0 0 0-2.643 2.457h14.88a12.839 12.839 0 0 0-1.036-2.457z" class="cls-4" transform="translate(-50.682 -41.043)"/>
    <path id="Caminho_200" d="M100.092 2.888h11.2A4.306 4.306 0 0 0 108.264.43H107.1a13.43 13.43 0 0 0-7.008 2.458z" class="cls-5" transform="translate(-94.384 -.405)"/>
    <path id="Caminho_201" d="M8.835 132.167h18.41c-.088-.844-.206-1.668-.357-2.457H9.793a13.415 13.415 0 0 0-.958 2.457z" class="cls-4" transform="translate(-8.331 -122.313)"/>
    <path id="Caminho_202" d="M27.24 86.609a13.523 13.523 0 0 0-1.6 2.457h17.1a21.659 21.659 0 0 0-.612-2.457z" class="cls-5" transform="translate(-24.175 -81.67)"/>
    <path id="Caminho_203" d="M0 217.09c0 .426.022.847.061 1.262h19.02c.028-.817.029-1.64 0-2.457H.058c-.035.395-.058.793-.058 1.195z" class="cls-4" transform="translate(-.002 -203.584)"/>
    <path id="Caminho_204" d="M.978 175.259H20c-.027-.829-.083-1.652-.167-2.457H1.426a13.434 13.434 0 0 0-.448 2.457z" class="cls-5" transform="translate(-.922 -162.948)"/>
    <path id="Caminho_205" d="M27.559 302.072H9.175a13.411 13.411 0 0 0 .974 2.457H27.2c.148-.788.269-1.612.359-2.457z" class="cls-4" transform="translate(-8.652 -284.846)"/>
    <path id="Caminho_206" d="M1.53 261.445h18.384c.086-.8.143-1.627.172-2.457H1.068a13.439 13.439 0 0 0 .462 2.457z" class="cls-5" transform="translate(-1.007 -244.219)"/>
    <path id="Caminho_207" d="M57.435 390.718H68.5a12.546 12.546 0 0 0 1.056-2.457h-14.8a13.579 13.579 0 0 0 2.679 2.457z" class="cls-4" transform="translate(-51.631 -366.12)"/>
    <g id="Grupo_54" transform="translate(1.497 19.684)">
        <path id="Caminho_208" d="M26.254 345.166a13.53 13.53 0 0 0 1.625 2.457h14.8a21.426 21.426 0 0 0 .62-2.457z" class="cls-5" transform="translate(-26.254 -345.166)"/>
        <path id="Caminho_209" d="M108.923 433.76h.082c.163.006.325.01.489.01 1.374 0 2.494-.918 3.361-2.413h-11.062a13.435 13.435 0 0 0 7.13 2.403z" class="cls-5" transform="translate(-97.485 -426.444)"/>
    </g>
    <path id="Caminho_210" fill="#283991" d="M14.177.123A13.5 13.5 0 0 0 1.008 12.405h13.17V.123z" transform="translate(-.951 -.116)"/>
    <g id="Grupo_55" transform="translate(.454 .936)">
        <path id="Caminho_211" d="M32.963 134.187l.206.634h.667l-.539.392.206.634-.539-.392-.539.392.206-.634-.539-.392h.667z" class="cls-7" transform="translate(-30.716 -127.471)"/>
        <path id="Caminho_212" d="M32.963 173.438l.206.634h.667l-.539.392.206.634-.539-.392-.539.392.206-.634-.539-.392h.667z" class="cls-7" transform="translate(-30.716 -164.483)"/>
        <path id="Caminho_213" d="M72.218 75.3l.206.634h.666l-.539.392.206.634-.539-.392-.539.392.206-.634-.539-.392h.667z" class="cls-7" transform="translate(-67.731 -71.938)"/>
        <path id="Caminho_214" d="M72.218 114.554l.206.634h.666l-.539.392.206.634-.539-.392-.539.392.206-.634-.539-.392h.667z" class="cls-7" transform="translate(-67.731 -108.957)"/>
        <path id="Caminho_215" d="M72.218 153.812l.206.634h.666l-.539.391.206.634-.539-.392-.539.392.206-.634-.539-.391h.667z" class="cls-7" transform="translate(-67.731 -145.977)"/>
        <path id="Caminho_216" d="M8.519 165.187l-.206-.634.539-.392h-.666l-.015-.046c-.073.226-.139.455-.2.687l.009-.007z" class="cls-7" transform="translate(-7.971 -155.692)"/>
        <path id="Caminho_217" d="M37.165 96.586l.539-.392.539.392-.206-.634.539-.392h-.667l-.206-.634-.206.634h-.246c-.046.069-.09.139-.134.209l.253.183z" class="cls-7" transform="translate(-35.456 -90.449)"/>
        <path id="Caminho_218" d="M77.726 47.787l.539.392-.206-.634.539-.392h-.385q-.49.367-.945.776l-.081.249z" class="cls-7" transform="translate(-73.239 -45.4)"/>
        <path id="Caminho_219" d="M116.452 27.142l.539-.392.539.392-.206-.634.539-.392h-.663l-.028-.085c-.226.115-.449.235-.668.363l.157.114z" class="cls-7" transform="translate(-110.266 -25.483)"/>
        <path id="Caminho_220" d="M111.477 55.671l.206.633h.666l-.539.392.206.634-.539-.392-.539.392.206-.634-.544-.396h.667z" class="cls-7" transform="translate(-104.751 -53.432)"/>
        <path id="Caminho_221" d="M111.477 94.929l.206.633h.666l-.539.392.206.634-.539-.392-.539.392.206-.634-.539-.392h.667z" class="cls-7" transform="translate(-104.751 -90.451)"/>
        <path id="Caminho_222" d="M111.477 134.187l.206.634h.666l-.539.392.206.634-.539-.392-.539.392.206-.634-.539-.392h.667z" class="cls-7" transform="translate(-104.751 -127.471)"/>
        <path id="Caminho_223" d="M111.477 173.438l.206.634h.666l-.539.392.206.634-.539-.392-.539.392.206-.634-.539-.392h.667z" class="cls-7" transform="translate(-104.751 -164.483)"/>
        <path id="Caminho_224" d="M150.735 36.038l.206.634h.666l-.539.392.206.634-.539-.392-.539.392.206-.634-.539-.392h.667z" class="cls-7" transform="translate(-141.77 -34.919)"/>
        <path id="Caminho_225" d="M150.735 75.3l.206.634h.666l-.539.392.206.634-.539-.392-.539.392.206-.634-.539-.392h.667z" class="cls-7" transform="translate(-141.77 -71.938)"/>
        <path id="Caminho_226" d="M150.735 114.554l.206.634h.666l-.539.392.206.634-.539-.392-.539.392.206-.634-.539-.392h.667z" class="cls-7" transform="translate(-141.77 -108.957)"/>
        <path id="Caminho_227" d="M150.735 153.812l.206.634h.666l-.539.391.206.634-.539-.392-.539.392.206-.634-.539-.391h.667z" class="cls-7" transform="translate(-141.77 -145.977)"/>
        <path id="Caminho_228" d="M189.993 16.413l.206.634h.666l-.539.392.206.634-.539-.392-.539.392.206-.634-.539-.392h.666z" class="cls-7" transform="translate(-178.79 -16.413)"/>
        <path id="Caminho_229" d="M189.993 55.671l.206.633h.666l-.539.392.206.634-.539-.392-.539.392.206-.634-.539-.392h.666z" class="cls-7" transform="translate(-178.79 -53.432)"/>
        <path id="Caminho_230" d="M189.993 94.929l.206.633h.666l-.539.392.206.634-.539-.392-.539.392.206-.634-.539-.392h.666z" class="cls-7" transform="translate(-178.79 -90.451)"/>
        <path id="Caminho_231" d="M189.993 134.187l.206.634h.666l-.539.392.206.634-.539-.392-.539.392.206-.634-.539-.392h.666z" class="cls-7" transform="translate(-178.79 -127.471)"/>
        <path id="Caminho_232" d="M189.993 173.438l.206.634h.666l-.539.392.206.634-.539-.392-.539.392.206-.634-.539-.392h.666z" class="cls-7" transform="translate(-178.79 -164.483)"/>
    </g>
</svg>
